<?xml version="1.0" encoding="UTF-8" standalone="no"?>
<!DOCTYPE svg PUBLIC "-//W3C//DTD SVG 1.1//EN" "http://www.w3.org/Graphics/SVG/1.1/DTD/svg11.dtd">
<!-- Generated by Microsoft Visio, SVG Export baseSubscription.svg Page-1 -->
<svg xmlns="http://www.w3.org/2000/svg" xmlns:xlink="http://www.w3.org/1999/xlink" xmlns:ev="http://www.w3.org/2001/xml-events"
		width="6.28273in" height="4.46184in" viewBox="0 0 452.357 537.252" xml:space="preserve" color-interpolation-filters="sRGB"
		class="st33">
	<style type="text/css">
	<![CDATA[
		.st1 {visibility:visible}
		.st2 {fill:#5b9bd5;fill-opacity:0.22;filter:url(#filter_2);stroke:#5b9bd5;stroke-dasharray:10.5,7.5;stroke-opacity:0.22}
		.st3 {fill:#ffffff;stroke:#7f7f7f;stroke-dasharray:10.5,7.5;stroke-width:1.5}
		.st4 {fill:#5b9bd5;fill-opacity:0.22;filter:url(#filter_2);stroke:none}
		.st5 {fill:#0078d7;stroke:none;stroke-width:0.25}
		.st6 {fill:#5b9bd5;stroke:none;stroke-width:0.25}
		.st7 {fill:none;filter:url(#filter_2);stroke:#5b9bd5;stroke-dasharray:10.5,7.5;stroke-opacity:0.22}
		.st8 {fill:none;stroke:#5b9bd5;stroke-dasharray:10.5,7.5;stroke-width:1.5}
		.st9 {fill:none;stroke:none;stroke-width:0.25}
		.st10 {fill:#5b9bd5;font-family:Calibri;font-size:0.499992em;font-weight:bold}
		.st11 {fill:#000000;font-size:1em}
		.st12 {fill:none;filter:url(#filter_2);stroke:#5b9bd5;stroke-dasharray:4.5,4.5;stroke-opacity:0.22}
		.st13 {fill:none;stroke:#70ad47;stroke-dasharray:4.5,4.5;stroke-width:1.5}
		.st14 {marker-end:url(#mrkr4-173);marker-start:url(#mrkr4-171);stroke:#70ad47;stroke-linecap:round;stroke-linejoin:round;stroke-width:2.5}
		.st15 {fill:#70ad47;fill-opacity:1;stroke:#70ad47;stroke-opacity:1;stroke-width:0.49800796812749}
		.st16 {fill:#ffffff;stroke:none;stroke-linecap:butt;stroke-width:7.2}
		.st17 {fill:#000000;font-family:Arial;font-size:0.666664em}
		.st18 {fill:#d8d8d8;stroke:none;stroke-width:0.25}
		.st19 {fill:#59b4d9;stroke:none;stroke-width:0.75}
		.st20 {fill:#ffffff;fill-opacity:0.2;stroke:none;stroke-width:0.75}
		.st21 {fill:#a0a1a2;stroke:none;stroke-width:0.75}
		.st22 {fill:url(#grad0-383)}
		.st23 {stroke:#4f87bb;stroke-width:0.75}
		.st24 {fill:#4f87bb;font-family:Calibri;font-size:0.833336em}
		.st25 {fill:#00188f;stroke:none;stroke-width:0.772727}
		.st26 {fill:#68217a;stroke:none;stroke-width:12.24}
		.st27 {fill:#7fba00;stroke:none;stroke-width:12.24}
		.st28 {fill:#5b9bd5;fill-opacity:0.22;filter:url(#filter_2);stroke:#5b9bd5;stroke-opacity:0.22}
		.st29 {fill:#acccea;stroke:#c7c8c8;stroke-width:0.25}
		.st30 {fill:#5b9bd5;stroke:#c7c8c8;stroke-width:0.25}
		.st31 {fill:#5b9bd5;fill-opacity:0.22;filter:url(#filter_2)}
		.st32 {fill:#ffffff}
		.st33 {fill:none;fill-rule:evenodd;font-size:12px;overflow:visible;stroke-linecap:square;stroke-miterlimit:3}
	]]>
	</style>

	<defs id="Patterns_And_Gradients">
		<linearGradient id="grad0-383" x1="0" y1="0" x2="1" y2="0" gradientTransform="rotate(60 0.5 0.5)">
			<stop offset="0" stop-color="#e9eff7" stop-opacity="1"/>
			<stop offset="0.24" stop-color="#f4f7fb" stop-opacity="1"/>
			<stop offset="0.54" stop-color="#feffff" stop-opacity="1"/>
		</linearGradient>
	</defs>
	<defs id="Markers">
		<g id="lend4">
			<path d="M 2 1 L 0 0 L 2 -1 L 2 1 " style="stroke:none"/>
		</g>
		<marker id="mrkr4-171" class="st15" refX="3.872" orient="auto" markerUnits="strokeWidth" overflow="visible">
			<use xlink:href="#lend4" transform="scale(2.008) "/>
		</marker>
		<marker id="mrkr4-173" class="st15" refX="-4.016" orient="auto" markerUnits="strokeWidth" overflow="visible">
			<use xlink:href="#lend4" transform="scale(-2.008,-2.008) "/>
		</marker>
	</defs>
	<defs id="Filters">
		<filter id="filter_2">
			<feGaussianBlur stdDeviation="2"/>
		</filter>
	</defs>
	<g>
		<title>Page-1</title>
		<g id="shape167-1" transform="translate(35.3116,-407.762)">
			<title>Sheet.167</title>
			<g id="shadow167-2" transform="matrix(1,0,0,1,0.345598,1.97279)" class="st1">
				<path d="M0 537.25 L155.76 537.25 L155.76 492.29 L0 492.29 L0 537.25 Z" class="st2"/>
			</g>
			<path d="M0 537.25 L155.76 537.25 L155.76 492.29 L0 492.29 L0 537.25 Z" class="st3"/>
		</g>
		<g id="shape166-6" transform="translate(35.3116,-355.965)">
			<title>Sheet.166</title>
			<g id="shadow166-7" transform="matrix(1,0,0,1,0.345598,1.97279)" class="st1">
				<path d="M0 537.25 L155.76 537.25 L155.76 492.29 L0 492.29 L0 537.25 Z" class="st2"/>
			</g>
			<path d="M0 537.25 L155.76 537.25 L155.76 492.29 L0 492.29 L0 537.25 Z" class="st3"/>
		</g>
		<g id="group2-11" transform="translate(43.7268,-78.3155)">
			<title>Virtual Network</title>
			<g id="shape3-12" transform="translate(12.2576,0)">
				<title>Sheet.3</title>
				<g id="shadow3-13" transform="matrix(1,0,0,1,0.3456,1.9728)" class="st1">
					<path d="M5.35 532.48 L4.28 531.41 L0.58 527.71 L0 528.34 L4.15 532.48 L0 536.63 L0.58 537.25 L4.28 533.55 L5.35
								 532.48 Z" class="st4"/>
				</g>
				<path d="M5.35 532.48 L4.28 531.41 L0.58 527.71 L0 528.34 L4.15 532.48 L0 536.63 L0.58 537.25 L4.28 533.55 L5.35
							 532.48 Z" class="st5"/>
			</g>
			<g id="shape4-17">
				<title>Sheet.4</title>
				<g id="shadow4-18" transform="matrix(1,0,0,1,0.3456,1.9728)" class="st1">
					<path d="M0 532.48 L1.07 531.41 L4.77 527.71 L5.35 528.34 L1.2 532.48 L5.35 536.63 L4.77 537.25 L1.07 533.55
								 L0 532.48 Z" class="st4"/>
				</g>
				<path d="M0 532.48 L1.07 531.41 L4.77 527.71 L5.35 528.34 L1.2 532.48 L5.35 536.63 L4.77 537.25 L1.07 533.55 L0 532.48
							 Z" class="st5"/>
			</g>
			<g id="shape5-22" transform="translate(4.54646,-3.69957)">
				<title>Sheet.5</title>
				<g id="shadow5-23" transform="matrix(1,0,0,1,0.3456,1.9728)" class="st1">
					<path d="M2.14 536.18 C2.14 536.76 1.65 537.25 1.07 537.25 C0.45 537.25 0 536.76 0 536.18 C0 535.6 0.49 535.11
								 1.07 535.11 C1.65 535.11 2.14 535.56 2.14 536.18 Z" class="st4"/>
				</g>
				<path d="M2.14 536.18 C2.14 536.76 1.65 537.25 1.07 537.25 C0.45 537.25 0 536.76 0 536.18 C0 535.6 0.49 535.11 1.07
							 535.11 C1.65 535.11 2.14 535.56 2.14 536.18 Z" class="st5"/>
			</g>
			<g id="shape6-27" transform="translate(7.75572,-3.69957)">
				<title>Sheet.6</title>
				<g id="shadow6-28" transform="matrix(1,0,0,1,0.3456,1.9728)" class="st1">
					<ellipse cx="1.06975" cy="536.183" rx="1.06975" ry="1.06975" class="st4"/>
				</g>
				<ellipse cx="1.06975" cy="536.183" rx="1.06975" ry="1.06975" class="st5"/>
			</g>
			<g id="shape7-32" transform="translate(10.965,-3.69957)">
				<title>Sheet.7</title>
				<g id="shadow7-33" transform="matrix(1,0,0,1,0.3456,1.9728)" class="st1">
					<ellipse cx="1.06975" cy="536.183" rx="1.06975" ry="1.06975" class="st4"/>
				</g>
				<ellipse cx="1.06975" cy="536.183" rx="1.06975" ry="1.06975" class="st5"/>
			</g>
		</g>
		<g id="group27-37" transform="translate(35.3116,-41.3043)">
			<title>Resource group</title>
			<g id="group28-38" transform="translate(0.467047,-0.326933)">
				<title>Sheet.28</title>
				<g id="shape29-39" transform="translate(4.62376,-10.6487)">
					<title>Sheet.29</title>
					<g id="shadow29-40" transform="matrix(1,0,0,1,0.3456,1.9728)" class="st1">
						<path d="M7.05 537.25 C7.01 537.25 7.01 537.25 6.96 537.21 L0.09 533.24 C0.05 533.19 0 533.14 0 533.05 C0
									 532.96 0.05 532.91 0.09 532.86 L6.91 528.94 C6.96 528.89 7.05 528.89 7.1 528.94 L13.96 532.91
									 C14.01 532.96 14.06 533 14.06 533.1 C14.06 533.19 14.01 533.24 13.96 533.28 L7.15 537.21 C7.1
									 537.25 7.1 537.25 7.05 537.25 Z" class="st4"/>
					</g>
					<path d="M7.05 537.25 C7.01 537.25 7.01 537.25 6.96 537.21 L0.09 533.24 C0.05 533.19 0 533.14 0 533.05 C0 532.96
								 0.05 532.91 0.09 532.86 L6.91 528.94 C6.96 528.89 7.05 528.89 7.1 528.94 L13.96 532.91 C14.01 532.96
								 14.06 533 14.06 533.1 C14.06 533.19 14.01 533.24 13.96 533.28 L7.15 537.21 C7.1 537.25 7.1 537.25
								 7.05 537.25 Z" class="st6"/>
				</g>
				<g id="shape30-44" transform="translate(3.64296,-1.0275)">
					<title>Sheet.30</title>
					<g id="shadow30-45" transform="matrix(1,0,0,1,0.3456,1.9728)" class="st1">
						<path d="M7.05 537.25 C7.01 537.25 6.96 537.25 6.96 537.21 L0.09 533.24 C0.05 533.19 0 533.14 0 533.05 L0
									 525.11 C0 525.02 0.05 524.97 0.09 524.92 C0.14 524.88 0.23 524.88 0.28 524.92 L7.15 528.89 C7.19
									 528.94 7.24 528.99 7.24 529.08 L7.24 537.02 C7.24 537.11 7.19 537.16 7.15 537.21 C7.1 537.25
									 7.05 537.25 7.05 537.25 Z" class="st4"/>
					</g>
					<path d="M7.05 537.25 C7.01 537.25 6.96 537.25 6.96 537.21 L0.09 533.24 C0.05 533.19 0 533.14 0 533.05 L0 525.11
								 C0 525.02 0.05 524.97 0.09 524.92 C0.14 524.88 0.23 524.88 0.28 524.92 L7.15 528.89 C7.19 528.94
								 7.24 528.99 7.24 529.08 L7.24 537.02 C7.24 537.11 7.19 537.16 7.15 537.21 C7.1 537.25 7.05 537.25
								 7.05 537.25 Z" class="st6"/>
				</g>
				<g id="shape31-49" transform="translate(12.4234,-1.0275)">
					<title>Sheet.31</title>
					<g id="shadow31-50" transform="matrix(1,0,0,1,0.3456,1.9728)" class="st1">
						<path d="M0.19 537.25 C0.14 537.25 0.09 537.25 0.09 537.21 C0.05 537.16 0 537.11 0 537.02 L0 529.13 C0 529.03
									 0.05 528.99 0.09 528.94 L6.96 524.97 C7.01 524.92 7.1 524.92 7.15 524.97 C7.19 525.02 7.24 525.06
									 7.24 525.16 L7.24 533.05 C7.24 533.14 7.19 533.19 7.15 533.24 L0.28 537.21 C0.28 537.25 0.23
									 537.25 0.19 537.25 Z" class="st4"/>
					</g>
					<path d="M0.19 537.25 C0.14 537.25 0.09 537.25 0.09 537.21 C0.05 537.16 0 537.11 0 537.02 L0 529.13 C0 529.03
								 0.05 528.99 0.09 528.94 L6.96 524.97 C7.01 524.92 7.1 524.92 7.15 524.97 C7.19 525.02 7.24 525.06
								 7.24 525.16 L7.24 533.05 C7.24 533.14 7.19 533.19 7.15 533.24 L0.28 537.21 C0.28 537.25 0.23 537.25
								 0.19 537.25 Z" class="st6"/>
				</g>
				<g id="shape32-54" transform="translate(1.17406E-13,-0.140114)">
					<title>Sheet.32</title>
					<g id="shadow32-55" transform="matrix(1,0,0,1,0.3456,1.9728)" class="st1">
						<path d="M4.44 537.25 C4.34 537.25 4.2 537.21 4.11 537.16 L0.93 535.29 C0.37 534.96 0 534.31 0 533.7 L0 521.93
									 C-0 521.33 0.37 520.63 0.93 520.35 L4.11 518.48 C4.44 518.29 4.86 518.38 5.04 518.71 C5.23 519.04
									 5.14 519.46 4.81 519.64 L1.63 521.51 C1.54 521.56 1.4 521.79 1.4 521.93 L1.4 533.7 C1.4 533.84
									 1.54 534.08 1.63 534.12 L4.81 535.99 C5.14 536.18 5.23 536.6 5.04 536.93 C4.9 537.11 4.67 537.25
									 4.44 537.25 Z" class="st4"/>
					</g>
					<path d="M4.44 537.25 C4.34 537.25 4.2 537.21 4.11 537.16 L0.93 535.29 C0.37 534.96 0 534.31 0 533.7 L0 521.93
								 C-0 521.33 0.37 520.63 0.93 520.35 L4.11 518.48 C4.44 518.29 4.86 518.38 5.04 518.71 C5.23 519.04
								 5.14 519.46 4.81 519.64 L1.63 521.51 C1.54 521.56 1.4 521.79 1.4 521.93 L1.4 533.7 C1.4 533.84 1.54
								 534.08 1.63 534.12 L4.81 535.99 C5.14 536.18 5.23 536.6 5.04 536.93 C4.9 537.11 4.67 537.25 4.44
								 537.25 Z" class="st6"/>
				</g>
				<g id="shape33-59" transform="translate(18.0747,0)">
					<title>Sheet.33</title>
					<g id="shadow33-60" transform="matrix(1,0,0,1,0.3456,1.9728)" class="st1">
						<path d="M0.79 518.29 C0.89 518.29 1.03 518.34 1.12 518.38 L4.3 520.25 C4.86 520.58 5.23 521.23 5.23 521.84
									 L5.23 533.61 C5.23 534.22 4.86 534.92 4.3 535.2 L1.12 537.07 C0.79 537.25 0.37 537.16 0.19 536.83
									 C0 536.51 0.09 536.08 0.42 535.9 L3.6 534.03 C3.69 533.98 3.83 533.75 3.83 533.61 L3.83 521.84
									 C3.83 521.7 3.69 521.47 3.6 521.42 L0.42 519.55 C0.09 519.36 0 518.94 0.19 518.62 C0.33 518.38
									 0.56 518.29 0.79 518.29 Z" class="st4"/>
					</g>
					<path d="M0.79 518.29 C0.89 518.29 1.03 518.34 1.12 518.38 L4.3 520.25 C4.86 520.58 5.23 521.23 5.23 521.84 L5.23
								 533.61 C5.23 534.22 4.86 534.92 4.3 535.2 L1.12 537.07 C0.79 537.25 0.37 537.16 0.19 536.83 C0 536.51
								 0.09 536.08 0.42 535.9 L3.6 534.03 C3.69 533.98 3.83 533.75 3.83 533.61 L3.83 521.84 C3.83 521.7
								 3.69 521.47 3.6 521.42 L0.42 519.55 C0.09 519.36 0 518.94 0.19 518.62 C0.33 518.38 0.56 518.29 0.79
								 518.29 Z" class="st6"/>
				</g>
			</g>
		</g>
		<g id="shape34-64" transform="translate(29.3646,-33.7127)">
			<title>Sheet.34</title>
			<g id="shadow34-65" transform="matrix(1,0,0,1,0.345598,1.97279)" class="st1">
				<path d="M0 537.25 L390.13 537.25 L390.13 265.18 L0 265.18 L0 537.25 Z" class="st7"/>
			</g>
			<path d="M0 537.25 L390.13 537.25 L390.13 265.18 L0 265.18 L0 537.25 Z" class="st8"/>
		</g>
		<g id="shape35-69" transform="translate(58.7568,-39.1502)">
			<title>Sheet.35</title>
			<desc>Resource Group &#60;reg&#62;-&#60;env&#62;-&#60;tm#&#62;-&#60;tmn&#62;-net</desc>
			<rect x="0" y="512.955" width="101.443" height="24.2977" class="st9"/>
			<text x="4" y="522.35" class="st10">Resource Group <tspan x="4" dy="1.2em" class="st11">&#60;</tspan><tspan
						class="st11">reg</tspan><tspan class="st11">&#62;</tspan><tspan class="st11">-</tspan><tspan class="st11">&#60;</tspan><tspan
						class="st11">env</tspan><tspan class="st11">&#62;</tspan><tspan class="st11">-</tspan><tspan class="st11">&#60;</tspan><tspan
						class="st11">tm</tspan><tspan class="st11">#&#62;</tspan><tspan class="st11">-</tspan><tspan class="st11">&#60;</tspan><tspan
						class="st11">tmn</tspan><tspan class="st11">&#62;</tspan><tspan class="st11">-</tspan><tspan class="st11">net</tspan></text>		</g>
		<g id="shape36-89" transform="translate(578.374,245.058) rotate(90)">
			<title>Sheet.36</title>
			<g id="shadow36-90" transform="matrix(1,0,0,1,1.97279,-0.345598)" class="st1">
				<path d="M0 537.25 L219.61 537.25 L219.61 401.41 L0 401.41 L0 537.25 Z" class="st12"/>
			</g>
			<path d="M0 537.25 L219.61 537.25 L219.61 401.41 L0 401.41 L0 537.25 Z" class="st13"/>
		</g>
		<g id="shape37-94" transform="translate(59.2437,-70.936)">
			<title>Sheet.37</title>
			<desc>Virtual Network (/23) &#60;reg&#62;-&#60;env&#62;-&#60;tm#&#62;-&#60;tmn&#62;-learnedroutes</desc>
			<rect x="0" y="512.955" width="123.12" height="24.2977" class="st9"/>
			<text x="4" y="522.35" class="st10">Virtual Network (/23) <tspan x="4" dy="1.2em" class="st11">&#60;</tspan><tspan
						class="st11">reg</tspan><tspan class="st11">&#62;</tspan><tspan class="st11">-</tspan><tspan class="st11">&#60;</tspan><tspan
						class="st11">env</tspan><tspan class="st11">&#62;</tspan><tspan class="st11">-</tspan><tspan class="st11">&#60;</tspan><tspan
						class="st11">tm</tspan><tspan class="st11">#&#62;</tspan><tspan class="st11">-</tspan><tspan class="st11">&#60;</tspan><tspan
						class="st11">tmn</tspan><tspan class="st11">&#62;</tspan><tspan class="st11">-</tspan><tspan class="st11">learnedroutes</tspan></text>		</g>
		<g id="group38-114" transform="translate(275.799,-79.1391)">
			<title>Virtual Network.38</title>
			<g id="shape39-115" transform="translate(12.2576,0)">
				<title>Sheet.39</title>
				<g id="shadow39-116" transform="matrix(1,0,0,1,0.3456,1.9728)" class="st1">
					<path d="M5.35 532.48 L4.28 531.41 L0.58 527.71 L0 528.34 L4.15 532.48 L0 536.63 L0.58 537.25 L4.28 533.55 L5.35
								 532.48 Z" class="st4"/>
				</g>
				<path d="M5.35 532.48 L4.28 531.41 L0.58 527.71 L0 528.34 L4.15 532.48 L0 536.63 L0.58 537.25 L4.28 533.55 L5.35
							 532.48 Z" class="st5"/>
			</g>
			<g id="shape40-120">
				<title>Sheet.40</title>
				<g id="shadow40-121" transform="matrix(1,0,0,1,0.3456,1.9728)" class="st1">
					<path d="M0 532.48 L1.07 531.41 L4.77 527.71 L5.35 528.34 L1.2 532.48 L5.35 536.63 L4.77 537.25 L1.07 533.55
								 L0 532.48 Z" class="st4"/>
				</g>
				<path d="M0 532.48 L1.07 531.41 L4.77 527.71 L5.35 528.34 L1.2 532.48 L5.35 536.63 L4.77 537.25 L1.07 533.55 L0 532.48
							 Z" class="st5"/>
			</g>
			<g id="shape41-125" transform="translate(4.54646,-3.69957)">
				<title>Sheet.41</title>
				<g id="shadow41-126" transform="matrix(1,0,0,1,0.3456,1.9728)" class="st1">
					<path d="M2.14 536.18 C2.14 536.76 1.65 537.25 1.07 537.25 C0.45 537.25 0 536.76 0 536.18 C0 535.6 0.49 535.11
								 1.07 535.11 C1.65 535.11 2.14 535.56 2.14 536.18 Z" class="st4"/>
				</g>
				<path d="M2.14 536.18 C2.14 536.76 1.65 537.25 1.07 537.25 C0.45 537.25 0 536.76 0 536.18 C0 535.6 0.49 535.11 1.07
							 535.11 C1.65 535.11 2.14 535.56 2.14 536.18 Z" class="st5"/>
			</g>
			<g id="shape42-130" transform="translate(7.75572,-3.69957)">
				<title>Sheet.42</title>
				<g id="shadow42-131" transform="matrix(1,0,0,1,0.3456,1.9728)" class="st1">
					<ellipse cx="1.06975" cy="536.183" rx="1.06975" ry="1.06975" class="st4"/>
				</g>
				<ellipse cx="1.06975" cy="536.183" rx="1.06975" ry="1.06975" class="st5"/>
			</g>
			<g id="shape43-135" transform="translate(10.965,-3.69957)">
				<title>Sheet.43</title>
				<g id="shadow43-136" transform="matrix(1,0,0,1,0.3456,1.9728)" class="st1">
					<ellipse cx="1.06975" cy="536.183" rx="1.06975" ry="1.06975" class="st4"/>
				</g>
				<ellipse cx="1.06975" cy="536.183" rx="1.06975" ry="1.06975" class="st5"/>
			</g>
		</g>
		<g id="shape44-140" transform="translate(810.446,244.235) rotate(90)">
			<title>Sheet.44</title>
			<g id="shadow44-141" transform="matrix(1,0,0,1,1.97279,-0.345598)" class="st1">
				<path d="M0 537.25 L219.61 537.25 L219.61 401.41 L0 401.41 L0 537.25 Z" class="st12"/>
			</g>
			<path d="M0 537.25 L219.61 537.25 L219.61 401.41 L0 401.41 L0 537.25 Z" class="st13"/>
		</g>
		<g id="shape45-145" transform="translate(291.316,-71.7596)">
			<title>Sheet.45</title>
			<desc>Virtual Network (/26) &#60;reg&#62;-&#60;env&#62;-&#60;tm#&#62;-&#60;tmn&#62;-defaultroutes</desc>
			<rect x="0" y="512.955" width="123.12" height="24.2977" class="st9"/>
			<text x="4" y="522.35" class="st10">Virtual Network (/26) <tspan x="4" dy="1.2em" class="st11">&#60;</tspan><tspan
						class="st11">reg</tspan><tspan class="st11">&#62;</tspan><tspan class="st11">-</tspan><tspan class="st11">&#60;</tspan><tspan
						class="st11">env</tspan><tspan class="st11">&#62;</tspan><tspan class="st11">-</tspan><tspan class="st11">&#60;</tspan><tspan
						class="st11">tm</tspan><tspan class="st11">#&#62;</tspan><tspan class="st11">-</tspan><tspan class="st11">&#60;</tspan><tspan
						class="st11">tmn</tspan><tspan class="st11">&#62;</tspan><tspan class="st11">-</tspan><tspan class="st11">defaultroutes</tspan></text>		</g>
		<g id="shape54-165" transform="translate(176.968,-175.714)">
			<title>Dynamic connector.54</title>
			<desc>VNET Peering</desc>
			<path d="M9.68 530.17 L10.04 530.17 L86.19 530.17" class="st14"/>
			<rect x="21.5965" y="538.551" width="51.1323" height="9.59985" class="st16"/>
			<text x="21.6" y="545.75" class="st17">VNET Peering</text>		</g>
		<g id="shape57-176" transform="translate(284.54,-100.95)">
			<title>Sheet.57</title>
			<g id="shadow57-177" transform="matrix(1,0,0,1,0.345598,1.97279)" class="st1">
				<path d="M0 537.25 L112.05 537.25 L112.05 463.58 L0 463.58 L0 537.25 Z" class="st2"/>
			</g>
			<path d="M0 537.25 L112.05 537.25 L112.05 463.58 L0 463.58 L0 537.25 Z" class="st3"/>
		</g>
		<g id="shape58-181" transform="translate(284.54,-205.023)">
			<title>Sheet.58</title>
			<g id="shadow58-182" transform="matrix(1,0,0,1,0.345598,1.97279)" class="st1">
				<path d="M0 537.25 L112.05 537.25 L112.05 463.58 L0 463.58 L0 537.25 Z" class="st2"/>
			</g>
			<path d="M0 537.25 L112.05 537.25 L112.05 463.58 L0 463.58 L0 537.25 Z" class="st3"/>
		</g>
		<g id="shape60-186" transform="translate(299.235,-100.95)">
			<title>Sheet.60</title>
			<desc>Subnet (/27) gateway</desc>
			<rect x="0" y="512.955" width="97.062" height="24.2977" class="st9"/>
			<text x="4" y="522.35" class="st10">Subnet (/27) <tspan x="4" dy="1.2em" class="st11">gateway</tspan></text>		</g>
		<g id="group61-190" transform="translate(287.106,-108.051)">
			<title>Virtual Network.61</title>
			<g id="shape62-191" transform="translate(9.7098,0)">
				<title>Sheet.62</title>
				<g id="shadow62-192" transform="matrix(1,0,0,1,0.3456,1.9728)" class="st1">
					<path d="M5.35 532.48 L4.28 531.41 L0.58 527.71 L0 528.34 L4.15 532.48 L0 536.63 L0.58 537.25 L4.28 533.55 L5.35
								 532.48 Z" class="st4"/>
				</g>
				<path d="M5.35 532.48 L4.28 531.41 L0.58 527.71 L0 528.34 L4.15 532.48 L0 536.63 L0.58 537.25 L4.28 533.55 L5.35
							 532.48 Z" class="st5"/>
			</g>
			<g id="shape63-196" transform="translate(2.57335,0)">
				<title>Sheet.63</title>
				<g id="shadow63-197" transform="matrix(1,0,0,1,0.3456,1.9728)" class="st1">
					<path d="M0 532.48 L1.07 531.41 L4.77 527.71 L5.35 528.34 L1.2 532.48 L5.35 536.63 L4.77 537.25 L1.07 533.55
								 L0 532.48 Z" class="st4"/>
				</g>
				<path d="M0 532.48 L1.07 531.41 L4.77 527.71 L5.35 528.34 L1.2 532.48 L5.35 536.63 L4.77 537.25 L1.07 533.55 L0 532.48
							 Z" class="st5"/>
			</g>
			<g id="shape65-201" transform="translate(7.75572,-3.69957)">
				<title>Sheet.65</title>
				<g id="shadow65-202" transform="matrix(1,0,0,1,0.3456,1.9728)" class="st1">
					<ellipse cx="1.06975" cy="536.183" rx="1.06975" ry="1.06975" class="st4"/>
				</g>
				<ellipse cx="1.06975" cy="536.183" rx="1.06975" ry="1.06975" class="st5"/>
			</g>
		</g>
		<g id="shape67-206" transform="translate(297.921,-205.667)">
			<title>Sheet.67</title>
			<desc>Subnet (/27) appgateway</desc>
			<rect x="0" y="512.955" width="98.674" height="24.2977" class="st9"/>
			<text x="4" y="522.35" class="st10">Subnet (/27) <tspan x="4" dy="1.2em" class="st11">appgateway</tspan></text>		</g>
		<g id="group68-210" transform="translate(285.792,-212.768)">
			<title>Virtual Network.68</title>
			<g id="shape69-211" transform="translate(9.7098,0)">
				<title>Sheet.69</title>
				<g id="shadow69-212" transform="matrix(1,0,0,1,0.3456,1.9728)" class="st1">
					<path d="M5.35 532.48 L4.28 531.41 L0.58 527.71 L0 528.34 L4.15 532.48 L0 536.63 L0.58 537.25 L4.28 533.55 L5.35
								 532.48 Z" class="st4"/>
				</g>
				<path d="M5.35 532.48 L4.28 531.41 L0.58 527.71 L0 528.34 L4.15 532.48 L0 536.63 L0.58 537.25 L4.28 533.55 L5.35
							 532.48 Z" class="st5"/>
			</g>
			<g id="shape70-216" transform="translate(2.57335,0)">
				<title>Sheet.70</title>
				<g id="shadow70-217" transform="matrix(1,0,0,1,0.3456,1.9728)" class="st1">
					<path d="M0 532.48 L1.07 531.41 L4.77 527.71 L5.35 528.34 L1.2 532.48 L5.35 536.63 L4.77 537.25 L1.07 533.55
								 L0 532.48 Z" class="st4"/>
				</g>
				<path d="M0 532.48 L1.07 531.41 L4.77 527.71 L5.35 528.34 L1.2 532.48 L5.35 536.63 L4.77 537.25 L1.07 533.55 L0 532.48
							 Z" class="st5"/>
			</g>
			<g id="shape71-221" transform="translate(7.75572,-3.69957)">
				<title>Sheet.71</title>
				<g id="shadow71-222" transform="matrix(1,0,0,1,0.3456,1.9728)" class="st1">
					<ellipse cx="1.06975" cy="536.183" rx="1.06975" ry="1.06975" class="st4"/>
				</g>
				<ellipse cx="1.06975" cy="536.183" rx="1.06975" ry="1.06975" class="st5"/>
			</g>
		</g>
		<g id="group72-226" transform="translate(301.376,-243.78)">
			<title>Application Gateway</title>
			<g id="shape73-227" transform="translate(0.384415,-0.384415)">
				<title>Sheet.73</title>
				<g id="shadow73-228" transform="matrix(1,0,0,1,0.3456,1.9728)" class="st1">
					<path d="M18.72 526.41 L10.88 518.57 C10.53 518.22 10.07 518.03 9.61 518.03 C9.15 518.03 8.69 518.22 8.34 518.57
								 L0.54 526.37 C0.19 526.72 0 527.18 0 527.64 C0 528.1 0.19 528.56 0.54 528.91 L8.34 536.71 C8.69
								 537.06 9.15 537.25 9.61 537.25 C10.07 537.25 10.53 537.06 10.88 536.71 L18.72 528.95 C19.07 528.6
								 19.26 528.14 19.26 527.68 C19.26 527.18 19.07 526.76 18.72 526.41 ZM9.61 519.72 L12.15 522.26 L10.38
								 522.26 L10.38 525.95 L8.88 525.95 L8.88 522.26 L7.07 522.26 L9.61 519.72 ZM2.46 528.41 L2.46 526.87
								 L5.92 526.87 L5.92 525.1 L8.46 527.64 L5.92 530.18 L5.92 528.41 L2.46 528.41 ZM9.61 535.56 L7.07
								 533.02 L8.84 533.02 L8.84 529.41 L10.34 529.41 L10.34 533.02 L12.15 533.02 L9.61 535.56 ZM16.76
								 528.41 L13.34 528.41 L13.34 530.18 L10.8 527.64 L13.34 525.1 L13.34 526.87 L16.76 526.87 L16.76
								 528.41 Z" class="st4"/>
				</g>
				<path d="M18.72 526.41 L10.88 518.57 C10.53 518.22 10.07 518.03 9.61 518.03 C9.15 518.03 8.69 518.22 8.34 518.57
							 L0.54 526.37 C0.19 526.72 0 527.18 0 527.64 C0 528.1 0.19 528.56 0.54 528.91 L8.34 536.71 C8.69 537.06
							 9.15 537.25 9.61 537.25 C10.07 537.25 10.53 537.06 10.88 536.71 L18.72 528.95 C19.07 528.6 19.26 528.14
							 19.26 527.68 C19.26 527.18 19.07 526.76 18.72 526.41 ZM9.61 519.72 L12.15 522.26 L10.38 522.26 L10.38
							 525.95 L8.88 525.95 L8.88 522.26 L7.07 522.26 L9.61 519.72 ZM2.46 528.41 L2.46 526.87 L5.92 526.87 L5.92
							 525.1 L8.46 527.64 L5.92 530.18 L5.92 528.41 L2.46 528.41 ZM9.61 535.56 L7.07 533.02 L8.84 533.02 L8.84
							 529.41 L10.34 529.41 L10.34 533.02 L12.15 533.02 L9.61 535.56 ZM16.76 528.41 L13.34 528.41 L13.34 530.18
							 L10.8 527.64 L13.34 525.1 L13.34 526.87 L16.76 526.87 L16.76 528.41 Z" class="st18"/>
			</g>
		</g>
		<g id="group74-232" transform="translate(329.307,-243.78)">
			<title>Application Gateway.74</title>
			<g id="shape75-233" transform="translate(0.384415,-0.384415)">
				<title>Sheet.75</title>
				<g id="shadow75-234" transform="matrix(1,0,0,1,0.3456,1.9728)" class="st1">
					<path d="M18.72 526.41 L10.88 518.57 C10.53 518.22 10.07 518.03 9.61 518.03 C9.15 518.03 8.69 518.22 8.34 518.57
								 L0.54 526.37 C0.19 526.72 0 527.18 0 527.64 C0 528.1 0.19 528.56 0.54 528.91 L8.34 536.71 C8.69
								 537.06 9.15 537.25 9.61 537.25 C10.07 537.25 10.53 537.06 10.88 536.71 L18.72 528.95 C19.07 528.6
								 19.26 528.14 19.26 527.68 C19.26 527.18 19.07 526.76 18.72 526.41 ZM9.61 519.72 L12.15 522.26 L10.38
								 522.26 L10.38 525.95 L8.88 525.95 L8.88 522.26 L7.07 522.26 L9.61 519.72 ZM2.46 528.41 L2.46 526.87
								 L5.92 526.87 L5.92 525.1 L8.46 527.64 L5.92 530.18 L5.92 528.41 L2.46 528.41 ZM9.61 535.56 L7.07
								 533.02 L8.84 533.02 L8.84 529.41 L10.34 529.41 L10.34 533.02 L12.15 533.02 L9.61 535.56 ZM16.76
								 528.41 L13.34 528.41 L13.34 530.18 L10.8 527.64 L13.34 525.1 L13.34 526.87 L16.76 526.87 L16.76
								 528.41 Z" class="st4"/>
				</g>
				<path d="M18.72 526.41 L10.88 518.57 C10.53 518.22 10.07 518.03 9.61 518.03 C9.15 518.03 8.69 518.22 8.34 518.57
							 L0.54 526.37 C0.19 526.72 0 527.18 0 527.64 C0 528.1 0.19 528.56 0.54 528.91 L8.34 536.71 C8.69 537.06
							 9.15 537.25 9.61 537.25 C10.07 537.25 10.53 537.06 10.88 536.71 L18.72 528.95 C19.07 528.6 19.26 528.14
							 19.26 527.68 C19.26 527.18 19.07 526.76 18.72 526.41 ZM9.61 519.72 L12.15 522.26 L10.38 522.26 L10.38
							 525.95 L8.88 525.95 L8.88 522.26 L7.07 522.26 L9.61 519.72 ZM2.46 528.41 L2.46 526.87 L5.92 526.87 L5.92
							 525.1 L8.46 527.64 L5.92 530.18 L5.92 528.41 L2.46 528.41 ZM9.61 535.56 L7.07 533.02 L8.84 533.02 L8.84
							 529.41 L10.34 529.41 L10.34 533.02 L12.15 533.02 L9.61 535.56 ZM16.76 528.41 L13.34 528.41 L13.34 530.18
							 L10.8 527.64 L13.34 525.1 L13.34 526.87 L16.76 526.87 L16.76 528.41 Z" class="st18"/>
			</g>
		</g>
		<g id="group76-238" transform="translate(357.239,-243.78)">
			<title>Application Gateway.76</title>
			<g id="shape77-239" transform="translate(0.384415,-0.384415)">
				<title>Sheet.77</title>
				<g id="shadow77-240" transform="matrix(1,0,0,1,0.3456,1.9728)" class="st1">
					<path d="M18.72 526.41 L10.88 518.57 C10.53 518.22 10.07 518.03 9.61 518.03 C9.15 518.03 8.69 518.22 8.34 518.57
								 L0.54 526.37 C0.19 526.72 0 527.18 0 527.64 C0 528.1 0.19 528.56 0.54 528.91 L8.34 536.71 C8.69
								 537.06 9.15 537.25 9.61 537.25 C10.07 537.25 10.53 537.06 10.88 536.71 L18.72 528.95 C19.07 528.6
								 19.26 528.14 19.26 527.68 C19.26 527.18 19.07 526.76 18.72 526.41 ZM9.61 519.72 L12.15 522.26 L10.38
								 522.26 L10.38 525.95 L8.88 525.95 L8.88 522.26 L7.07 522.26 L9.61 519.72 ZM2.46 528.41 L2.46 526.87
								 L5.92 526.87 L5.92 525.1 L8.46 527.64 L5.92 530.18 L5.92 528.41 L2.46 528.41 ZM9.61 535.56 L7.07
								 533.02 L8.84 533.02 L8.84 529.41 L10.34 529.41 L10.34 533.02 L12.15 533.02 L9.61 535.56 ZM16.76
								 528.41 L13.34 528.41 L13.34 530.18 L10.8 527.64 L13.34 525.1 L13.34 526.87 L16.76 526.87 L16.76
								 528.41 Z" class="st4"/>
				</g>
				<path d="M18.72 526.41 L10.88 518.57 C10.53 518.22 10.07 518.03 9.61 518.03 C9.15 518.03 8.69 518.22 8.34 518.57
							 L0.54 526.37 C0.19 526.72 0 527.18 0 527.64 C0 528.1 0.19 528.56 0.54 528.91 L8.34 536.71 C8.69 537.06
							 9.15 537.25 9.61 537.25 C10.07 537.25 10.53 537.06 10.88 536.71 L18.72 528.95 C19.07 528.6 19.26 528.14
							 19.26 527.68 C19.26 527.18 19.07 526.76 18.72 526.41 ZM9.61 519.72 L12.15 522.26 L10.38 522.26 L10.38
							 525.95 L8.88 525.95 L8.88 522.26 L7.07 522.26 L9.61 519.72 ZM2.46 528.41 L2.46 526.87 L5.92 526.87 L5.92
							 525.1 L8.46 527.64 L5.92 530.18 L5.92 528.41 L2.46 528.41 ZM9.61 535.56 L7.07 533.02 L8.84 533.02 L8.84
							 529.41 L10.34 529.41 L10.34 533.02 L12.15 533.02 L9.61 535.56 ZM16.76 528.41 L13.34 528.41 L13.34 530.18
							 L10.8 527.64 L13.34 525.1 L13.34 526.87 L16.76 526.87 L16.76 528.41 Z" class="st18"/>
			</g>
		</g>
		<g id="shape78-244" transform="translate(53.6223,-102.722)">
			<title>Sheet.78</title>
			<g id="shadow78-245" transform="matrix(1,0,0,1,0.345598,1.97279)" class="st1">
				<path d="M0 537.25 L112.05 537.25 L112.05 509.62 L0 509.62 L0 537.25 Z" class="st2"/>
			</g>
			<path d="M0 537.25 L112.05 537.25 L112.05 509.62 L0 509.62 L0 537.25 Z" class="st3"/>
		</g>
		<g id="group79-249" transform="translate(59.2917,-108.902)">
			<title>Sheet.79</title>
			<g id="shape80-250" transform="translate(7.7574,-7.72686)">
				<title>Sheet.80</title>
				<g id="shadow80-251" transform="matrix(1,0,0,1,0.3456,1.9728)" class="st1">
					<path d="M5.38 534.56 C5.38 536.06 4.18 537.25 2.69 537.25 C1.19 537.25 0 536.06 0 534.56 C0.03 533.07 1.22 531.88
								 2.69 531.88 C4.18 531.88 5.38 533.07 5.38 534.56 Z" class="st4"/>
				</g>
				<path d="M5.38 534.56 C5.38 536.06 4.18 537.25 2.69 537.25 C1.19 537.25 0 536.06 0 534.56 C0.03 533.07 1.22 531.88
							 2.69 531.88 C4.18 531.88 5.38 533.07 5.38 534.56 Z" class="st19"/>
			</g>
			<g id="shape81-255" transform="translate(5.65007,0)">
				<title>Sheet.81</title>
				<g id="shadow81-256" transform="matrix(1,0,0,1,0.3456,1.9728)" class="st1">
					<path d="M6.75 530.47 L4.79 533.22 L2.84 530.47 L0 530.47 L0 537.25 L9.62 537.25 L9.62 530.47 L6.75 530.47 Z"
							class="st4"/>
				</g>
				<path d="M6.75 530.47 L4.79 533.22 L2.84 530.47 L0 530.47 L0 537.25 L9.62 537.25 L9.62 530.47 L6.75 530.47 Z"
						class="st19"/>
			</g>
			<g id="shape82-260" transform="translate(7.78794,-7.72686)">
				<title>Sheet.82</title>
				<g id="shadow82-261" transform="matrix(1,0,0,1,0.3456,1.9728)" class="st1">
					<path d="M0 534.56 C0 536.03 1.19 537.22 2.63 537.25 L3.3 531.97 C3.08 531.88 2.87 531.88 2.66 531.88 C1.19 531.88
								 0 533.07 0 534.56 Z" class="st4"/>
				</g>
				<path d="M0 534.56 C0 536.03 1.19 537.22 2.63 537.25 L3.3 531.97 C3.08 531.88 2.87 531.88 2.66 531.88 C1.19 531.88
							 0 533.07 0 534.56 Z" class="st20"/>
			</g>
			<g id="shape83-265" transform="translate(5.65007,0)">
				<title>Sheet.83</title>
				<g id="shadow83-266" transform="matrix(1,0,0,1,0.3456,1.9728)" class="st1">
					<path d="M2.84 530.47 L0 530.47 L0 537.25 L3.79 537.25 L4.37 532.58 L2.84 530.47 Z" class="st4"/>
				</g>
				<path d="M2.84 530.47 L0 530.47 L0 537.25 L3.79 537.25 L4.37 532.58 L2.84 530.47 Z" class="st20"/>
			</g>
			<g id="shape84-270" transform="translate(0,-8.06281)">
				<title>Sheet.84</title>
				<g id="shadow84-271" transform="matrix(1,0,0,1,0.3456,1.9728)" class="st1">
					<path d="M1.71 535.66 L3.21 537.25 L1.99 537.25 L0 535.21 L1.99 533.16 L3.21 533.16 L1.71 534.72 L6.11 534.72
								 L6.11 535.66 L1.71 535.66 Z" class="st4"/>
				</g>
				<path d="M1.71 535.66 L3.21 537.25 L1.99 537.25 L0 535.21 L1.99 533.16 L3.21 533.16 L1.71 534.72 L6.11 534.72 L6.11
							 535.66 L1.71 535.66 Z" class="st21"/>
			</g>
			<g id="shape85-275" transform="translate(5.16142,-9.65094)">
				<title>Sheet.85</title>
				<g id="shadow85-276" transform="matrix(1,0,0,1,0.3456,1.9728)" class="st1">
					<rect x="0" y="531.633" width="0.946769" height="5.61953" class="st4"/>
				</g>
				<rect x="0" y="531.633" width="0.946769" height="5.61953" class="st21"/>
			</g>
		</g>
		<g id="shape86-280" transform="translate(75.7356,-104.388)">
			<title>Sheet.86</title>
			<desc>Route Table hubinternet</desc>
			<rect x="0" y="512.955" width="89.9415" height="24.2977" class="st9"/>
			<text x="4" y="522.35" class="st10">Route Table <tspan x="4" dy="1.2em" class="st11">hubinternet</tspan></text>		</g>
		<g id="group87-284" transform="translate(30.8957,-312.326)">
			<title>Azure  subscription.87</title>
			<g id="shape88-285" transform="translate(11.3826,-5.17731)">
				<title>Sheet.88</title>
				<g id="shadow88-286" transform="matrix(1,0,0,1,0.3456,1.9728)" class="st1">
					<path d="M0.31 535.89 L0.04 536.95 C0 537.14 0.11 537.25 0.29 537.21 L1.37 536.94 C1.55 536.89 1.58 536.75 1.46
								 536.62 L0.63 535.8 C0.5 535.67 0.35 535.71 0.31 535.89 Z" class="st4"/>
				</g>
				<path d="M0.31 535.89 L0.04 536.95 C0 537.14 0.11 537.25 0.29 537.21 L1.37 536.94 C1.55 536.89 1.58 536.75 1.46 536.62
							 L0.63 535.8 C0.5 535.67 0.35 535.71 0.31 535.89 Z" class="st5"/>
			</g>
			<g id="shape89-290" transform="translate(12.427,-6.20162)">
				<title>Sheet.89</title>
				<g id="shadow89-291" transform="matrix(1,0,0,1,0.3456,1.9728)" class="st1">
					<path d="M0.12 535.51 L1.73 537.12 C1.86 537.25 2.08 537.25 2.21 537.12 L9.64 529.68 C9.78 529.56 9.78 529.33
								 9.64 529.2 L8.05 527.6 C7.91 527.47 7.7 527.47 7.56 527.6 L0.12 535.04 C-0 535.16 0 535.39 0.12
								 535.51 Z" class="st4"/>
				</g>
				<path d="M0.12 535.51 L1.73 537.12 C1.86 537.25 2.08 537.25 2.21 537.12 L9.64 529.68 C9.78 529.56 9.78 529.33 9.64
							 529.2 L8.05 527.6 C7.91 527.47 7.7 527.47 7.56 527.6 L0.12 535.04 C-0 535.16 0 535.39 0.12 535.51 Z"
						class="st5"/>
			</g>
			<g id="shape90-295" transform="translate(20.8674,-14.653)">
				<title>Sheet.90</title>
				<g id="shadow90-296" transform="matrix(1,0,0,1,0.3456,1.9728)" class="st1">
					<path d="M2.45 534.8 C1.54 533.89 0.64 534.59 0.64 534.59 C0.5 534.71 0.27 534.9 0.13 535.04 C0 535.17 0.01 535.38
								 0.13 535.53 L1.74 537.12 C1.86 537.25 2.09 537.25 2.21 537.12 C2.35 536.99 2.54 536.76 2.67 536.61
								 C2.67 536.61 3.37 535.71 2.45 534.8 Z" class="st4"/>
				</g>
				<path d="M2.45 534.8 C1.54 533.89 0.64 534.59 0.64 534.59 C0.5 534.71 0.27 534.9 0.13 535.04 C0 535.17 0.01 535.38
							 0.13 535.53 L1.74 537.12 C1.86 537.25 2.09 537.25 2.21 537.12 C2.35 536.99 2.54 536.76 2.67 536.61 C2.67
							 536.61 3.37 535.71 2.45 534.8 Z" class="st5"/>
			</g>
			<g id="shape91-300" transform="translate(6.77526,-2.03902)">
				<title>Sheet.91</title>
				<g id="shadow91-301" transform="matrix(1,0,0,1,0.3456,1.9728)" class="st1">
					<path d="M0.42 535.89 L0.4 535.89 C0.39 535.99 0.38 536.08 0.35 536.17 L0 537.25 L0.82 537.25 L0.48 536.18 C0.45
								 536.09 0.43 536 0.42 535.89 Z" class="st4"/>
				</g>
				<path d="M0.42 535.89 L0.4 535.89 C0.39 535.99 0.38 536.08 0.35 536.17 L0 537.25 L0.82 537.25 L0.48 536.18 C0.45
							 536.09 0.43 536 0.42 535.89 Z" class="st5"/>
			</g>
			<g id="shape92-305" transform="translate(16.4173,-2.14826)">
				<title>Sheet.92</title>
				<g id="shadow92-306" transform="matrix(1,0,0,1,0.3456,1.9728)" class="st1">
					<path d="M0.44 536.76 C0.33 536.76 0.23 536.81 0.14 536.91 C0.06 537.01 0.02 537.12 0 537.25 L0.84 537.25 C0.84
								 536.93 0.71 536.76 0.44 536.76 Z" class="st4"/>
				</g>
				<path d="M0.44 536.76 C0.33 536.76 0.23 536.81 0.14 536.91 C0.06 537.01 0.02 537.12 0 537.25 L0.84 537.25 C0.84 536.93
							 0.71 536.76 0.44 536.76 Z" class="st5"/>
			</g>
			<g id="shape93-310">
				<title>Sheet.93</title>
				<g id="shadow93-311" transform="matrix(1,0,0,1,0.3456,1.9728)" class="st1">
					<path d="M20.19 531.97 C20.08 531.97 19.97 531.98 19.87 531.99 C20.03 531.4 20.12 530.77 20.12 530.13 C20.12
								 529.13 19.91 528.18 19.53 527.31 L15.29 531.56 C15.05 531.8 13.4 532.53 12.99 532.65 L12.98 532.65
								 L12.97 532.65 L11.88 532.92 C11.79 532.94 11.7 532.96 11.6 532.96 C11.26 532.96 10.95 532.81 10.74
								 532.55 C10.53 532.28 10.45 531.93 10.53 531.58 L10.54 531.56 L10.54 531.55 L10.8 530.5 C10.91 530.04
								 11.68 528.42 11.91 528.19 L16.25 523.84 C15.3 523.36 14.22 523.08 13.07 523.08 C9.96 523.08 7.33
								 525.09 6.39 527.89 C5.9 527.72 5.37 527.62 4.82 527.62 C2.16 527.62 0 529.78 0 532.44 C-0 535.1
								 2.16 537.25 4.82 537.25 C4.82 537.25 4.82 537.25 4.82 537.25 L4.82 537.25 L20.41 537.25 L20.4 537.24
								 C21.76 537.13 22.83 536 22.83 534.61 C22.83 533.15 21.65 531.97 20.19 531.97 ZM7.99 536.48 L7.76
								 535.77 L6.62 535.77 L6.4 536.48 L5.62 536.48 L6.78 533.28 L7.64 533.28 L8.77 536.48 L7.99 536.48
								 ZM10.91 536.48 L8.86 536.48 L8.86 536.19 L10.01 534.71 L8.98 534.71 L8.98 534.19 L10.9 534.19 L10.9
								 534.54 L9.82 535.96 L10.91 535.96 L10.91 536.48 ZM13.46 536.48 L12.76 536.48 L12.76 536.13 L12.75
								 536.13 C12.58 536.4 12.34 536.53 12.05 536.53 C11.52 536.53 11.26 536.21 11.26 535.57 L11.26 534.19
								 L11.96 534.19 L11.96 535.51 C11.96 535.83 12.09 535.99 12.34 535.99 C12.47 535.99 12.57 535.95 12.65
								 535.86 C12.72 535.78 12.76 535.65 12.76 535.5 L12.76 534.19 L13.46 534.19 L13.46 536.48 L13.46 536.48
								 ZM15.55 534.83 C15.46 534.78 15.37 534.76 15.25 534.76 C15.1 534.76 14.98 534.82 14.89 534.93 C14.81
								 535.04 14.76 535.19 14.76 535.39 L14.76 536.48 L14.06 536.48 L14.06 534.19 L14.76 534.19 L14.76
								 534.62 L14.77 534.62 C14.88 534.31 15.08 534.15 15.37 534.15 C15.45 534.15 15.51 534.16 15.55 534.18
								 L15.55 534.83 ZM17.91 535.54 L16.42 535.54 C16.45 535.87 16.65 536.03 17.05 536.03 C17.3 536.03
								 17.52 535.98 17.71 535.86 L17.71 536.36 C17.5 536.48 17.23 536.53 16.89 536.53 C16.51 536.53 16.23
								 536.43 16.02 536.22 C15.82 536.02 15.72 535.73 15.72 535.37 C15.72 534.97 15.85 534.66 16.09 534.43
								 C16.31 534.23 16.56 534.14 16.87 534.14 C17.21 534.14 17.48 534.24 17.66 534.46 C17.83 534.66 17.91
								 534.92 17.91 535.24 L17.91 535.54 Z" class="st4"/>
				</g>
				<path d="M20.19 531.97 C20.08 531.97 19.97 531.98 19.87 531.99 C20.03 531.4 20.12 530.77 20.12 530.13 C20.12 529.13
							 19.91 528.18 19.53 527.31 L15.29 531.56 C15.05 531.8 13.4 532.53 12.99 532.65 L12.98 532.65 L12.97 532.65
							 L11.88 532.92 C11.79 532.94 11.7 532.96 11.6 532.96 C11.26 532.96 10.95 532.81 10.74 532.55 C10.53 532.28
							 10.45 531.93 10.53 531.58 L10.54 531.56 L10.54 531.55 L10.8 530.5 C10.91 530.04 11.68 528.42 11.91 528.19
							 L16.25 523.84 C15.3 523.36 14.22 523.08 13.07 523.08 C9.96 523.08 7.33 525.09 6.39 527.89 C5.9 527.72
							 5.37 527.62 4.82 527.62 C2.16 527.62 0 529.78 0 532.44 C-0 535.1 2.16 537.25 4.82 537.25 C4.82 537.25
							 4.82 537.25 4.82 537.25 L4.82 537.25 L20.41 537.25 L20.4 537.24 C21.76 537.13 22.83 536 22.83 534.61
							 C22.83 533.15 21.65 531.97 20.19 531.97 ZM7.99 536.48 L7.76 535.77 L6.62 535.77 L6.4 536.48 L5.62 536.48
							 L6.78 533.28 L7.64 533.28 L8.77 536.48 L7.99 536.48 ZM10.91 536.48 L8.86 536.48 L8.86 536.19 L10.01
							 534.71 L8.98 534.71 L8.98 534.19 L10.9 534.19 L10.9 534.54 L9.82 535.96 L10.91 535.96 L10.91 536.48
							 ZM13.46 536.48 L12.76 536.48 L12.76 536.13 L12.75 536.13 C12.58 536.4 12.34 536.53 12.05 536.53 C11.52
							 536.53 11.26 536.21 11.26 535.57 L11.26 534.19 L11.96 534.19 L11.96 535.51 C11.96 535.83 12.09 535.99
							 12.34 535.99 C12.47 535.99 12.57 535.95 12.65 535.86 C12.72 535.78 12.76 535.65 12.76 535.5 L12.76 534.19
							 L13.46 534.19 L13.46 536.48 L13.46 536.48 ZM15.55 534.83 C15.46 534.78 15.37 534.76 15.25 534.76 C15.1
							 534.76 14.98 534.82 14.89 534.93 C14.81 535.04 14.76 535.19 14.76 535.39 L14.76 536.48 L14.06 536.48
							 L14.06 534.19 L14.76 534.19 L14.76 534.62 L14.77 534.62 C14.88 534.31 15.08 534.15 15.37 534.15 C15.45
							 534.15 15.51 534.16 15.55 534.18 L15.55 534.83 ZM17.91 535.54 L16.42 535.54 C16.45 535.87 16.65 536.03
							 17.05 536.03 C17.3 536.03 17.52 535.98 17.71 535.86 L17.71 536.36 C17.5 536.48 17.23 536.53 16.89 536.53
							 C16.51 536.53 16.23 536.43 16.02 536.22 C15.82 536.02 15.72 535.73 15.72 535.37 C15.72 534.97 15.85
							 534.66 16.09 534.43 C16.31 534.23 16.56 534.14 16.87 534.14 C17.21 534.14 17.48 534.24 17.66 534.46
							 C17.83 534.66 17.91 534.92 17.91 535.24 L17.91 535.54 Z" class="st5"/>
			</g>
		</g>
		<g id="shape94-315" transform="translate(57.2257,-309.486)">
			<title>Sheet.94</title>
			<desc>(Spoke) Subscription &#60;tm#&#62;-&#60;env&#62;-APP-#</desc>
			<rect x="0" y="512.955" width="101.443" height="24.2977" class="st9"/>
			<text x="4" y="522.35" class="st10">(Spoke) Subscription <tspan x="4" dy="1.2em" class="st11">&#60;</tspan><tspan
						class="st11">tm</tspan><tspan class="st11">#&#62;</tspan><tspan class="st11">-</tspan><tspan class="st11">&#60;</tspan><tspan
						class="st11">env</tspan><tspan class="st11">&#62;</tspan><tspan class="st11">-</tspan><tspan class="st11">APP</tspan><tspan
						class="st11">-</tspan><tspan class="st11">#</tspan></text>		</g>
		<g id="shape104-329" transform="translate(26.9858,-348.651)">
			<title>Sheet.104</title>
			<g id="shadow104-330" transform="matrix(1,0,0,1,0.345598,1.97279)" class="st1">
				<path d="M0 537.25 L171.87 537.25 L171.87 424.26 L0 424.26 L0 537.25 Z" class="st7"/>
			</g>
			<path d="M0 537.25 L171.87 537.25 L171.87 424.26 L0 424.26 L0 537.25 Z" class="st8"/>
		</g>
		<g id="group112-334" transform="translate(142.077,-295.207)">
			<title>Sheet.112</title>
			<g id="group113-335">
				<title>Sheet.113</title>
			</g>
		</g>
		<g id="group141-336" transform="translate(27.8778,-461.723)">
			<title>Sheet.141</title>
			<g id="group46-337" transform="translate(-1.29896E-13,-3.08848)">
				<title>Azure  subscription</title>
				<g id="shape47-338" transform="translate(11.4498,-5.20789)">
					<title>Sheet.47</title>
					<g id="shadow47-339" transform="matrix(1,0,0,1,0.3456,1.9728)" class="st1">
						<path d="M0.31 535.88 L0.04 536.95 C0 537.14 0.11 537.25 0.29 537.21 L1.37 536.94 C1.56 536.89 1.59 536.74
									 1.47 536.62 L0.63 535.8 C0.5 535.66 0.35 535.7 0.31 535.88 Z" class="st4"/>
					</g>
					<path d="M0.31 535.88 L0.04 536.95 C0 537.14 0.11 537.25 0.29 537.21 L1.37 536.94 C1.56 536.89 1.59 536.74 1.47
								 536.62 L0.63 535.8 C0.5 535.66 0.35 535.7 0.31 535.88 Z" class="st5"/>
				</g>
				<g id="shape48-343" transform="translate(12.5004,-6.23825)">
					<title>Sheet.48</title>
					<g id="shadow48-344" transform="matrix(1,0,0,1,0.3456,1.9728)" class="st1">
						<path d="M0.13 535.5 L1.74 537.12 C1.87 537.25 2.09 537.25 2.23 537.12 L9.7 529.64 C9.83 529.51 9.83 529.28
									 9.7 529.15 L8.1 527.55 C7.96 527.41 7.74 527.41 7.61 527.55 L0.13 535.03 C0 535.15 -0 535.38
									 0.13 535.5 Z" class="st4"/>
					</g>
					<path d="M0.13 535.5 L1.74 537.12 C1.87 537.25 2.09 537.25 2.23 537.12 L9.7 529.64 C9.83 529.51 9.83 529.28 9.7
								 529.15 L8.1 527.55 C7.96 527.41 7.74 527.41 7.61 527.55 L0.13 535.03 C0 535.15 -0 535.38 0.13 535.5
								 Z" class="st5"/>
				</g>
				<g id="shape49-348" transform="translate(20.9906,-14.7395)">
					<title>Sheet.49</title>
					<g id="shadow49-349" transform="matrix(1,0,0,1,0.3456,1.9728)" class="st1">
						<path d="M2.47 534.79 C1.55 533.87 0.65 534.58 0.65 534.58 C0.5 534.69 0.27 534.89 0.14 535.03 C0 535.16
									 0.01 535.37 0.14 535.51 L1.75 537.12 C1.87 537.25 2.1 537.25 2.23 537.12 C2.36 536.99 2.56 536.75
									 2.68 536.61 C2.68 536.61 3.39 535.7 2.47 534.79 Z" class="st4"/>
					</g>
					<path d="M2.47 534.79 C1.55 533.87 0.65 534.58 0.65 534.58 C0.5 534.69 0.27 534.89 0.14 535.03 C0 535.16 0.01
								 535.37 0.14 535.51 L1.75 537.12 C1.87 537.25 2.1 537.25 2.23 537.12 C2.36 536.99 2.56 536.75 2.68
								 536.61 C2.68 536.61 3.39 535.7 2.47 534.79 Z" class="st5"/>
				</g>
				<g id="shape50-353" transform="translate(6.81527,-2.05106)">
					<title>Sheet.50</title>
					<g id="shadow50-354" transform="matrix(1,0,0,1,0.3456,1.9728)" class="st1">
						<path d="M0.42 535.88 L0.41 535.88 C0.4 535.98 0.38 536.07 0.35 536.16 L0 537.25 L0.82 537.25 L0.48 536.17
									 C0.45 536.09 0.43 535.99 0.42 535.88 Z" class="st4"/>
					</g>
					<path d="M0.42 535.88 L0.41 535.88 C0.4 535.98 0.38 536.07 0.35 536.16 L0 537.25 L0.82 537.25 L0.48 536.17 C0.45
								 536.09 0.43 535.99 0.42 535.88 Z" class="st5"/>
				</g>
				<g id="shape51-358" transform="translate(16.5143,-2.16095)">
					<title>Sheet.51</title>
					<g id="shadow51-359" transform="matrix(1,0,0,1,0.3456,1.9728)" class="st1">
						<path d="M0.45 536.76 C0.33 536.76 0.23 536.81 0.14 536.91 C0.06 537 0.02 537.12 0 537.25 L0.85 537.25 C0.85
									 536.92 0.71 536.76 0.45 536.76 Z" class="st4"/>
					</g>
					<path d="M0.45 536.76 C0.33 536.76 0.23 536.81 0.14 536.91 C0.06 537 0.02 537.12 0 537.25 L0.85 537.25 C0.85
								 536.92 0.71 536.76 0.45 536.76 Z" class="st5"/>
				</g>
				<g id="shape52-363">
					<title>Sheet.52</title>
					<g id="shadow52-364" transform="matrix(1,0,0,1,0.3456,1.9728)" class="st1">
						<path d="M20.31 531.94 C20.2 531.94 20.09 531.95 19.98 531.96 C20.15 531.36 20.24 530.73 20.24 530.08 C20.24
									 529.08 20.02 528.12 19.65 527.26 L15.38 531.53 C15.14 531.77 13.48 532.51 13.07 532.62 L13.06
									 532.62 L13.05 532.62 L11.95 532.9 C11.86 532.92 11.76 532.93 11.67 532.93 C11.33 532.93 11.02
									 532.78 10.81 532.52 C10.59 532.25 10.52 531.9 10.59 531.54 L10.6 531.53 L10.6 531.52 L10.87
									 530.46 C10.98 530 11.74 528.37 11.98 528.14 L16.35 523.76 C15.39 523.28 14.3 523 13.15 523 C10.02
									 523 7.37 525.02 6.43 527.83 C5.93 527.66 5.4 527.56 4.85 527.56 C2.17 527.56 0 529.73 0 532.41
									 C0 535.08 2.17 537.25 4.85 537.25 C4.85 537.25 4.85 537.25 4.85 537.25 L4.85 537.25 L20.53 537.25
									 L20.52 537.24 C21.89 537.13 22.97 535.99 22.97 534.59 C22.97 533.13 21.78 531.94 20.31 531.94
									 ZM8.03 536.47 L7.81 535.76 L6.66 535.76 L6.43 536.47 L5.65 536.47 L6.82 533.26 L7.68 533.26
									 L8.82 536.47 L8.03 536.47 ZM10.98 536.47 L8.91 536.47 L8.91 536.18 L10.07 534.7 L9.03 534.7
									 L9.03 534.18 L10.97 534.18 L10.97 534.53 L9.88 535.95 L10.98 535.95 L10.98 536.47 ZM13.54 536.47
									 L12.84 536.47 L12.84 536.12 L12.83 536.12 C12.65 536.39 12.42 536.53 12.12 536.53 C11.59 536.53
									 11.32 536.21 11.32 535.56 L11.32 534.18 L12.03 534.18 L12.03 535.5 C12.03 535.83 12.16 535.99
									 12.42 535.99 C12.54 535.99 12.64 535.94 12.72 535.86 C12.8 535.77 12.84 535.65 12.84 535.49
									 L12.84 534.18 L13.54 534.18 L13.54 536.47 L13.54 536.47 ZM15.64 534.82 C15.56 534.77 15.46 534.75
									 15.34 534.75 C15.19 534.75 15.07 534.8 14.98 534.92 C14.89 535.03 14.85 535.18 14.85 535.38
									 L14.85 536.47 L14.14 536.47 L14.14 534.18 L14.85 534.18 L14.85 534.6 L14.86 534.6 C14.97 534.29
									 15.17 534.14 15.47 534.14 C15.54 534.14 15.6 534.14 15.64 534.16 L15.64 534.82 ZM18.02 535.53
									 L16.52 535.53 C16.54 535.86 16.75 536.03 17.15 536.03 C17.4 536.03 17.62 535.97 17.82 535.85
									 L17.82 536.36 C17.6 536.47 17.33 536.53 16.99 536.53 C16.61 536.53 16.32 536.43 16.12 536.22
									 C15.92 536.01 15.82 535.73 15.82 535.36 C15.82 534.96 15.94 534.64 16.19 534.41 C16.4 534.22
									 16.66 534.12 16.97 534.12 C17.31 534.12 17.58 534.23 17.77 534.44 C17.93 534.64 18.02 534.9
									 18.02 535.23 L18.02 535.53 Z" class="st4"/>
					</g>
					<path d="M20.31 531.94 C20.2 531.94 20.09 531.95 19.98 531.96 C20.15 531.36 20.24 530.73 20.24 530.08 C20.24
								 529.08 20.02 528.12 19.65 527.26 L15.38 531.53 C15.14 531.77 13.48 532.51 13.07 532.62 L13.06 532.62
								 L13.05 532.62 L11.95 532.9 C11.86 532.92 11.76 532.93 11.67 532.93 C11.33 532.93 11.02 532.78 10.81
								 532.52 C10.59 532.25 10.52 531.9 10.59 531.54 L10.6 531.53 L10.6 531.52 L10.87 530.46 C10.98 530
								 11.74 528.37 11.98 528.14 L16.35 523.76 C15.39 523.28 14.3 523 13.15 523 C10.02 523 7.37 525.02
								 6.43 527.83 C5.93 527.66 5.4 527.56 4.85 527.56 C2.17 527.56 0 529.73 0 532.41 C0 535.08 2.17 537.25
								 4.85 537.25 C4.85 537.25 4.85 537.25 4.85 537.25 L4.85 537.25 L20.53 537.25 L20.52 537.24 C21.89
								 537.13 22.97 535.99 22.97 534.59 C22.97 533.13 21.78 531.94 20.31 531.94 ZM8.03 536.47 L7.81 535.76
								 L6.66 535.76 L6.43 536.47 L5.65 536.47 L6.82 533.26 L7.68 533.26 L8.82 536.47 L8.03 536.47 ZM10.98
								 536.47 L8.91 536.47 L8.91 536.18 L10.07 534.7 L9.03 534.7 L9.03 534.18 L10.97 534.18 L10.97 534.53
								 L9.88 535.95 L10.98 535.95 L10.98 536.47 ZM13.54 536.47 L12.84 536.47 L12.84 536.12 L12.83 536.12
								 C12.65 536.39 12.42 536.53 12.12 536.53 C11.59 536.53 11.32 536.21 11.32 535.56 L11.32 534.18 L12.03
								 534.18 L12.03 535.5 C12.03 535.83 12.16 535.99 12.42 535.99 C12.54 535.99 12.64 535.94 12.72 535.86
								 C12.8 535.77 12.84 535.65 12.84 535.49 L12.84 534.18 L13.54 534.18 L13.54 536.47 L13.54 536.47 ZM15.64
								 534.82 C15.56 534.77 15.46 534.75 15.34 534.75 C15.19 534.75 15.07 534.8 14.98 534.92 C14.89 535.03
								 14.85 535.18 14.85 535.38 L14.85 536.47 L14.14 536.47 L14.14 534.18 L14.85 534.18 L14.85 534.6 L14.86
								 534.6 C14.97 534.29 15.17 534.14 15.47 534.14 C15.54 534.14 15.6 534.14 15.64 534.16 L15.64 534.82
								 ZM18.02 535.53 L16.52 535.53 C16.54 535.86 16.75 536.03 17.15 536.03 C17.4 536.03 17.62 535.97 17.82
								 535.85 L17.82 536.36 C17.6 536.47 17.33 536.53 16.99 536.53 C16.61 536.53 16.32 536.43 16.12 536.22
								 C15.92 536.01 15.82 535.73 15.82 535.36 C15.82 534.96 15.94 534.64 16.19 534.41 C16.4 534.22 16.66
								 534.12 16.97 534.12 C17.31 534.12 17.58 534.23 17.77 534.44 C17.93 534.64 18.02 534.9 18.02 535.23
								 L18.02 535.53 Z" class="st5"/>
				</g>
			</g>
			<g id="shape105-368" transform="translate(24.9319,0)">
				<title>Sheet.105</title>
				<desc>(Hub) Subscription 169-&#60;env&#62;-HUB-#</desc>
				<rect x="0" y="512.955" width="101.443" height="24.2977" class="st9"/>
				<text x="4" y="522.35" class="st10">(Hub) Subscription <tspan x="4" dy="1.2em" class="st11">169</tspan><tspan
							class="st11">-</tspan><tspan class="st11">&#60;</tspan><tspan class="st11">env</tspan><tspan
							class="st11">&#62;</tspan><tspan class="st11">-</tspan><tspan class="st11">HUB</tspan><tspan
							class="st11">-</tspan><tspan class="st11">#</tspan></text>			</g>
		</g>
		<g id="shape155-380" transform="translate(266.933,-357.295)">
			<title>Cloud.11</title>
			<desc>Internet</desc>
			<path d="M2.77 519.99 A4.44156 5.60445 0 0 1 4.9 509.22 A9.00698 11.3652 0 0 1 17.97 500.14 A10.3425 13.0504 0 0 1 29.17
						 498.12 A6.48567 8.18374 0 0 1 38.77 497.44 A7.38406 9.31735 0 0 1 50.51 500.81 A5.27981 6.66194 0 0 1 54.77
						 510.23 A6.53972 8.25167 0 0 1 49.44 523.69 A8.25039 10.4101 0 0 1 37.71 530.42 A9.72792 12.2745 0 0 1 21.7
						 533.11 A12.3314 15.5595 0 0 1 7.83 530.42 A4.86498 6.13873 0 0 1 2.77 519.99 Z" class="st22"/>
			<path d="M2.77 519.99 A4.44156 5.60445 0 0 1 4.9 509.22 A9.00698 11.3652 0 0 1 17.97 500.14 A10.3425 13.0504 0 0 1 29.17
						 498.12 A6.48567 8.18374 0 0 1 38.77 497.44 A7.38406 9.31735 0 0 1 50.51 500.81 A5.27981 6.66194 0 0 1 54.77
						 510.23 A6.53972 8.25167 0 0 1 49.44 523.69 A8.25039 10.4101 0 0 1 37.71 530.42 A9.72792 12.2745 0 0 1 21.7
						 533.11 A12.3314 15.5595 0 0 1 7.83 530.42 A4.86498 6.13873 0 0 1 2.77 519.99" class="st23"/>
			<path d="M5.7 520.32 A4.42928 5.58896 0 0 1 2.77 519.99" class="st23"/>
			<path d="M20.9 531.43 A4.44856 5.61329 -180 0 0 21.7 533.11" class="st23"/>
			<path d="M38.1 528.4 A3.59108 4.53129 0 0 1 37.71 530.42" class="st23"/>
			<path d="M46.24 518.3 A3.7682 4.75479 0 0 1 49.44 523.69" class="st23"/>
			<path d="M53.17 512.25 A3.4402 4.34091 -180 0 0 54.77 510.23" class="st23"/>
			<path d="M19.57 501.48 A5.3051 6.69385 -180 0 0 17.97 500.14" class="st23"/>
			<text x="11.54" y="519.16" class="st24">Internet</text>		</g>
		<g id="shape158-392" transform="translate(109.851,-292.194)">
			<title>Dynamic connector</title>
			<desc>VNET Peering</desc>
			<path d="M7.09 527.57 L7.09 527.21 L7.09 490.84" class="st14"/>
			<rect x="12.9045" y="504.901" width="51.1323" height="9.59985" class="st16"/>
			<text x="12.9" y="512.1" class="st17">VNET Peering</text>		</g>
		<g id="group164-401" transform="translate(46.2667,-361.443)">
			<title>Sheet.164</title>
			<g id="shape152-402" transform="translate(46.1339,-4.79473)">
				<title>Sheet.152</title>
				<desc>Network Virtual Appliance Palo Alto Firewalls</desc>
				<rect x="0" y="512.955" width="98.674" height="24.2977" class="st9"/>
				<text x="4" y="522.35" class="st10">Network Virtual Appliance <tspan x="4" dy="1.2em" class="st11">Palo Alto Firewalls</tspan></text>			</g>
			<g id="group153-406">
				<title>Sheet.153</title>
				<g id="group126-407" transform="translate(2.15827E-13,-9.58945)">
					<title>Sheet.126</title>
					<g id="shape127-408">
						<title>Sheet.127</title>
						<g id="shadow127-409" transform="matrix(1,0,0,1,0.3456,1.9728)" class="st1">
							<path d="M24.71 512.95 L1.45 512.95 C0.69 512.95 0 513.58 0 514.41 L0 530.89 C0 531.65 0.62 532.41 1.45
										 532.41 L9.41 532.41 C10.25 535.46 9.9 535.73 4.84 535.73 L4.84 537.25 L21.46 537.25 L21.46
										 535.73 C16.4 535.73 15.71 535.45 16.54 532.41 L24.71 532.41 C25.48 532.41 26.3 531.71 26.3
										 531.02 L26.3 514.41 C26.31 513.58 25.48 512.95 24.71 512.95 ZM24.23 530.26 L1.93 530.26
										 L2.07 514.96 L24.23 515.03 L24.23 530.26 Z" class="st4"/>
						</g>
						<path d="M24.71 512.95 L1.45 512.95 C0.69 512.95 0 513.58 0 514.41 L0 530.89 C0 531.65 0.62 532.41 1.45 532.41
									 L9.41 532.41 C10.25 535.46 9.9 535.73 4.84 535.73 L4.84 537.25 L21.46 537.25 L21.46 535.73 C16.4
									 535.73 15.71 535.45 16.54 532.41 L24.71 532.41 C25.48 532.41 26.3 531.71 26.3 531.02 L26.3 514.41
									 C26.31 513.58 25.48 512.95 24.71 512.95 ZM24.23 530.26 L1.93 530.26 L2.07 514.96 L24.23 515.03
									 L24.23 530.26 Z" class="st25"/>
					</g>
					<g id="shape128-413" transform="translate(8.79076,-15.2256)">
						<title>Sheet.128</title>
						<g id="shadow128-414" transform="matrix(1,0,0,1,0.3456,1.9728)" class="st1">
							<path d="M8.1 534.83 L4.02 532.48 L0 534.83 L0 534.9 L4.02 537.25 L8.1 534.9 L8.1 534.83 Z" class="st4"/>
						</g>
						<path d="M8.1 534.83 L4.02 532.48 L0 534.83 L0 534.9 L4.02 537.25 L8.1 534.9 L8.1 534.83 Z" class="st25"/>
					</g>
					<g id="shape129-418" transform="translate(13.151,-9.68742)">
						<title>Sheet.129</title>
						<g id="shadow129-419" transform="matrix(1,0,0,1,0.3456,1.9728)" class="st1">
							<path d="M0 532.62 L0 537.25 L4.16 534.91 L4.16 530.26 L0 532.62 Z" class="st4"/>
						</g>
						<path d="M0 532.62 L0 537.25 L4.16 534.91 L4.16 530.26 L0 532.62 Z" class="st25"/>
					</g>
					<g id="shape130-423" transform="translate(8.30727,-9.68742)">
						<title>Sheet.130</title>
						<g id="shadow130-424" transform="matrix(1,0,0,1,0.3456,1.9728)" class="st1">
							<path d="M4.15 532.62 L0 530.26 L0 534.91 L4.15 537.25 L4.15 532.62 Z" class="st4"/>
						</g>
						<path d="M4.15 532.62 L0 530.26 L0 534.91 L4.15 537.25 L4.15 532.62 Z" class="st25"/>
					</g>
				</g>
				<g id="group131-428" transform="translate(6.43448,-5.43754)">
					<title>Sheet.131</title>
					<g id="shape132-429">
						<title>Sheet.132</title>
						<g id="shadow132-430" transform="matrix(1,0,0,1,0.3456,1.9728)" class="st1">
							<path d="M24.71 512.95 L1.45 512.95 C0.69 512.95 0 513.58 0 514.41 L0 530.89 C0 531.65 0.62 532.41 1.45
										 532.41 L9.41 532.41 C10.25 535.46 9.9 535.73 4.84 535.73 L4.84 537.25 L21.46 537.25 L21.46
										 535.73 C16.4 535.73 15.71 535.45 16.54 532.41 L24.71 532.41 C25.48 532.41 26.3 531.71 26.3
										 531.02 L26.3 514.41 C26.31 513.58 25.48 512.95 24.71 512.95 ZM24.23 530.26 L1.93 530.26
										 L2.07 514.96 L24.23 515.03 L24.23 530.26 Z" class="st4"/>
						</g>
						<path d="M24.71 512.95 L1.45 512.95 C0.69 512.95 0 513.58 0 514.41 L0 530.89 C0 531.65 0.62 532.41 1.45 532.41
									 L9.41 532.41 C10.25 535.46 9.9 535.73 4.84 535.73 L4.84 537.25 L21.46 537.25 L21.46 535.73 C16.4
									 535.73 15.71 535.45 16.54 532.41 L24.71 532.41 C25.48 532.41 26.3 531.71 26.3 531.02 L26.3 514.41
									 C26.31 513.58 25.48 512.95 24.71 512.95 ZM24.23 530.26 L1.93 530.26 L2.07 514.96 L24.23 515.03
									 L24.23 530.26 Z" class="st25"/>
					</g>
					<g id="shape133-434" transform="translate(8.79076,-15.2256)">
						<title>Sheet.133</title>
						<g id="shadow133-435" transform="matrix(1,0,0,1,0.3456,1.9728)" class="st1">
							<path d="M8.1 534.83 L4.02 532.48 L0 534.83 L0 534.9 L4.02 537.25 L8.1 534.9 L8.1 534.83 Z" class="st4"/>
						</g>
						<path d="M8.1 534.83 L4.02 532.48 L0 534.83 L0 534.9 L4.02 537.25 L8.1 534.9 L8.1 534.83 Z" class="st25"/>
					</g>
					<g id="shape134-439" transform="translate(13.151,-9.68742)">
						<title>Sheet.134</title>
						<g id="shadow134-440" transform="matrix(1,0,0,1,0.3456,1.9728)" class="st1">
							<path d="M0 532.62 L0 537.25 L4.16 534.91 L4.16 530.26 L0 532.62 Z" class="st4"/>
						</g>
						<path d="M0 532.62 L0 537.25 L4.16 534.91 L4.16 530.26 L0 532.62 Z" class="st25"/>
					</g>
					<g id="shape135-444" transform="translate(8.30727,-9.68742)">
						<title>Sheet.135</title>
						<g id="shadow135-445" transform="matrix(1,0,0,1,0.3456,1.9728)" class="st1">
							<path d="M4.15 532.62 L0 530.26 L0 534.91 L4.15 537.25 L4.15 532.62 Z" class="st4"/>
						</g>
						<path d="M4.15 532.62 L0 530.26 L0 534.91 L4.15 537.25 L4.15 532.62 Z" class="st25"/>
					</g>
				</g>
				<g id="group136-449" transform="translate(17.1235,0)">
					<title>Sheet.136</title>
					<g id="shape137-450">
						<title>Sheet.137</title>
						<g id="shadow137-451" transform="matrix(1,0,0,1,0.3456,1.9728)" class="st1">
							<path d="M24.71 512.95 L1.45 512.95 C0.69 512.95 0 513.58 0 514.41 L0 530.89 C0 531.65 0.62 532.41 1.45
										 532.41 L9.41 532.41 C10.25 535.46 9.9 535.73 4.84 535.73 L4.84 537.25 L21.46 537.25 L21.46
										 535.73 C16.4 535.73 15.71 535.45 16.54 532.41 L24.71 532.41 C25.48 532.41 26.3 531.71 26.3
										 531.02 L26.3 514.41 C26.31 513.58 25.48 512.95 24.71 512.95 ZM24.23 530.26 L1.93 530.26
										 L2.07 514.96 L24.23 515.03 L24.23 530.26 Z" class="st4"/>
						</g>
						<path d="M24.71 512.95 L1.45 512.95 C0.69 512.95 0 513.58 0 514.41 L0 530.89 C0 531.65 0.62 532.41 1.45 532.41
									 L9.41 532.41 C10.25 535.46 9.9 535.73 4.84 535.73 L4.84 537.25 L21.46 537.25 L21.46 535.73 C16.4
									 535.73 15.71 535.45 16.54 532.41 L24.71 532.41 C25.48 532.41 26.3 531.71 26.3 531.02 L26.3 514.41
									 C26.31 513.58 25.48 512.95 24.71 512.95 ZM24.23 530.26 L1.93 530.26 L2.07 514.96 L24.23 515.03
									 L24.23 530.26 Z" class="st25"/>
					</g>
					<g id="shape138-455" transform="translate(8.79076,-15.2256)">
						<title>Sheet.138</title>
						<g id="shadow138-456" transform="matrix(1,0,0,1,0.3456,1.9728)" class="st1">
							<path d="M8.1 534.83 L4.02 532.48 L0 534.83 L0 534.9 L4.02 537.25 L8.1 534.9 L8.1 534.83 Z" class="st4"/>
						</g>
						<path d="M8.1 534.83 L4.02 532.48 L0 534.83 L0 534.9 L4.02 537.25 L8.1 534.9 L8.1 534.83 Z" class="st25"/>
					</g>
					<g id="shape139-460" transform="translate(13.151,-9.68742)">
						<title>Sheet.139</title>
						<g id="shadow139-461" transform="matrix(1,0,0,1,0.3456,1.9728)" class="st1">
							<path d="M0 532.62 L0 537.25 L4.16 534.91 L4.16 530.26 L0 532.62 Z" class="st4"/>
						</g>
						<path d="M0 532.62 L0 537.25 L4.16 534.91 L4.16 530.26 L0 532.62 Z" class="st25"/>
					</g>
					<g id="shape140-465" transform="translate(8.30727,-9.68742)">
						<title>Sheet.140</title>
						<g id="shadow140-466" transform="matrix(1,0,0,1,0.3456,1.9728)" class="st1">
							<path d="M4.15 532.62 L0 530.26 L0 534.91 L4.15 537.25 L4.15 532.62 Z" class="st4"/>
						</g>
						<path d="M4.15 532.62 L0 530.26 L0 534.91 L4.15 537.25 L4.15 532.62 Z" class="st25"/>
					</g>
				</g>
			</g>
		</g>
		<g id="group165-470" transform="translate(56.5528,-418.095)">
			<title>Sheet.165</title>
			<g id="group106-471" transform="translate(2.79776E-14,-3.92874)">
				<title>Sheet.106</title>
				<g id="group107-472">
					<title>Sheet.107</title>
					<g id="shape108-473" transform="translate(6.52338,-2.46291)">
						<title>Sheet.108</title>
						<g id="shadow108-474" transform="matrix(1,0,0,1,0.3456,1.9728)" class="st1">
							<path d="M0 534.72 L20.64 534.72 L20.64 537.25 L0 537.25 L0 534.72 Z" class="st4"/>
						</g>
						<path d="M0 534.72 L20.64 534.72 L20.64 537.25 L0 537.25 L0 534.72 Z" class="st26"/>
					</g>
					<g id="shape109-478" transform="translate(4.07379,-4.0851)">
						<title>Sheet.109</title>
						<g id="shadow109-479" transform="matrix(1,0,0,1,0.3456,1.9728)" class="st1">
							<path d="M0 535.45 L9.98 525.47 L11.77 527.26 L1.79 537.24 L0 535.45 ZM15.22 525.49 L25.19 535.46 L23.41
										 537.25 L13.43 527.27 L15.22 525.49 Z" class="st4"/>
						</g>
						<path d="M0 535.45 L9.98 525.47 L11.77 527.26 L1.79 537.24 L0 535.45 ZM15.22 525.49 L25.19 535.46 L23.41
									 537.25 L13.43 527.27 L15.22 525.49 Z" class="st26"/>
					</g>
					<g id="shape110-483">
						<title>Sheet.110</title>
						<g id="shadow110-484" transform="matrix(1,0,0,1,0.3456,1.9728)" class="st1">
							<path d="M16.64 516.88 C14.58 516.88 12.91 518.55 12.91 520.61 C12.91 522.67 14.58 524.34 16.64 524.34
										 C18.7 524.34 20.37 522.67 20.37 520.61 C20.37 518.55 18.7 516.88 16.64 516.88 ZM16.64 521.81
										 C15.98 521.81 15.44 521.28 15.44 520.61 C15.44 519.95 15.98 519.41 16.64 519.41 C17.31 519.41
										 17.84 519.95 17.84 520.61 C17.84 521.28 17.31 521.81 16.64 521.81 ZM3.73 529.8 C1.66 529.8
										 0 531.46 0 533.52 C0 535.59 1.66 537.25 3.73 537.25 C5.79 537.25 7.46 535.59 7.46 533.52
										 C7.46 531.46 5.79 529.8 3.73 529.8 ZM3.73 534.72 C3.06 534.72 2.53 534.19 2.53 533.52 C2.53
										 532.86 3.06 532.33 3.73 532.33 C4.39 532.33 4.93 532.86 4.93 533.52 C4.93 534.19 4.39 534.72
										 3.73 534.72 ZM29.55 529.8 C27.49 529.8 25.83 531.46 25.83 533.52 C25.83 535.59 27.49 537.25
										 29.55 537.25 C31.62 537.25 33.28 535.59 33.28 533.52 C33.28 531.46 31.62 529.8 29.55 529.8
										 ZM29.55 534.72 C28.89 534.72 28.36 534.19 28.36 533.52 C28.36 532.86 28.89 532.33 29.55
										 532.33 C30.22 532.33 30.75 532.86 30.75 533.52 C30.75 534.19 30.22 534.72 29.55 534.72 Z"
									class="st4"/>
						</g>
						<path d="M16.64 516.88 C14.58 516.88 12.91 518.55 12.91 520.61 C12.91 522.67 14.58 524.34 16.64 524.34 C18.7
									 524.34 20.37 522.67 20.37 520.61 C20.37 518.55 18.7 516.88 16.64 516.88 ZM16.64 521.81 C15.98
									 521.81 15.44 521.28 15.44 520.61 C15.44 519.95 15.98 519.41 16.64 519.41 C17.31 519.41 17.84
									 519.95 17.84 520.61 C17.84 521.28 17.31 521.81 16.64 521.81 ZM3.73 529.8 C1.66 529.8 0 531.46
									 0 533.52 C0 535.59 1.66 537.25 3.73 537.25 C5.79 537.25 7.46 535.59 7.46 533.52 C7.46 531.46
									 5.79 529.8 3.73 529.8 ZM3.73 534.72 C3.06 534.72 2.53 534.19 2.53 533.52 C2.53 532.86 3.06 532.33
									 3.73 532.33 C4.39 532.33 4.93 532.86 4.93 533.52 C4.93 534.19 4.39 534.72 3.73 534.72 ZM29.55
									 529.8 C27.49 529.8 25.83 531.46 25.83 533.52 C25.83 535.59 27.49 537.25 29.55 537.25 C31.62
									 537.25 33.28 535.59 33.28 533.52 C33.28 531.46 31.62 529.8 29.55 529.8 ZM29.55 534.72 C28.89
									 534.72 28.36 534.19 28.36 533.52 C28.36 532.86 28.89 532.33 29.55 532.33 C30.22 532.33 30.75
									 532.86 30.75 533.52 C30.75 534.19 30.22 534.72 29.55 534.72 Z" class="st27"/>
					</g>
				</g>
			</g>
			<g id="shape154-488" transform="translate(40.1556,0)">
				<title>Sheet.154</title>
				<desc>ExpressRoute Circuit On-Prem Connectivity</desc>
				<rect x="0" y="512.955" width="73.1252" height="24.2977" class="st9"/>
				<text x="4" y="522.35" class="st10">ExpressRoute Circuit <tspan x="4" dy="1.2em" class="st11">On</tspan><tspan
							class="st11">-</tspan><tspan class="st11">Prem Connectivity</tspan></text>			</g>
		</g>
		<g id="shape168-494" transform="translate(191.075,-372.617)">
			<title>Dynamic connector.168</title>
			<path d="M9.68 530.17 L10.04 530.17 L65.82 530.17" class="st14"/>
		</g>
		<g id="group169-501" transform="translate(265.368,-408.122)">
			<title>Data Center.14</title>
			<g id="shape170-502" transform="translate(0,-8.43385)">
				<title>Sheet.170</title>
				<g id="shadow170-503" transform="matrix(1,0,0,1,0.345598,1.97279)" class="st1">
					<ellipse cx="29.7352" cy="528.82" rx="29.7352" ry="8.43237" class="st28"/>
				</g>
				<ellipse cx="29.7352" cy="528.82" rx="29.7352" ry="8.43237" class="st29"/>
			</g>
			<g id="shape171-507" transform="translate(5.24109,-13.9111)">
				<title>Sheet.171</title>
				<g id="shadow171-508" transform="matrix(1,0,0,1,0.345598,1.97279)" class="st1">
					<path d="M31.68 514.19 L16.96 514.19 L16.96 537.25 L31.68 537.25 L31.68 514.19 ZM14.72 514.19 L0 514.19 L0 537.25
								 L14.72 537.25 L14.72 514.19 ZM33.97 514.19 L33.97 537.25 L48.69 537.25 L48.69 514.19 L33.97 514.19
								 ZM25.71 506.62 L25.71 514.19 L31.68 514.19 L31.68 529.68 L33.97 529.68 L33.97 514.19 L40.43 514.19
								 L40.43 506.62 L25.71 506.62 ZM25.71 506.62 L31.71 506.62 L31.71 500.13 L16.99 500.13 L16.99 506.62
								 L22.98 506.62 L22.98 514.19 L25.71 514.19 L25.71 506.62 ZM22.98 506.62 L8.26 506.62 L8.26 514.19
								 L14.72 514.19 L14.72 529.68 L16.96 529.68 L16.96 514.19 L22.98 514.19 L22.98 506.62 Z"
							class="st28"/>
				</g>
				<path d="M31.68 514.19 L16.96 514.19 L16.96 537.25 L31.68 537.25 L31.68 514.19 ZM14.72 514.19 L0 514.19 L0 537.25
							 L14.72 537.25 L14.72 514.19 ZM33.97 514.19 L33.97 537.25 L48.69 537.25 L48.69 514.19 L33.97 514.19 ZM25.71
							 506.62 L25.71 514.19 L31.68 514.19 L31.68 529.68 L33.97 529.68 L33.97 514.19 L40.43 514.19 L40.43 506.62
							 L25.71 506.62 ZM25.71 506.62 L31.71 506.62 L31.71 500.13 L16.99 500.13 L16.99 506.62 L22.98 506.62 L22.98
							 514.19 L25.71 514.19 L25.71 506.62 ZM22.98 506.62 L8.26 506.62 L8.26 514.19 L14.72 514.19 L14.72 529.68
							 L16.96 529.68 L16.96 514.19 L22.98 514.19 L22.98 506.62 Z" class="st30"/>
			</g>
			<g id="shape172-512" transform="translate(11.0556,-17.8166)">
				<title>Sheet.172</title>
				<g id="shadow172-513" transform="matrix(1,0,0,1,0.345598,1.97279)" class="st1">
					<path d="M40.17 530.36 a0.889394 0.889394 -180 1 0 -1.77879 0 a0.889394 0.889394 -180 1 0 1.77879 0 ZM33.83 533.61
								 L40.17 533.61 L40.17 533.01 L33.83 533.01 L33.83 533.61 ZM33.83 535.43 L40.17 535.43 L40.17 534.83
								 L33.83 534.83 L33.83 535.43 ZM33.83 537.25 L40.17 537.25 L40.17 536.65 L33.83 536.65 L33.83 537.25
								 ZM22.98 530.36 a0.889394 0.889394 -180 1 0 -1.77879 0 a0.889394 0.889394 -180 1 0 1.77879 0 ZM16.64
								 533.61 L22.98 533.61 L22.98 533.01 L16.64 533.01 L16.64 533.61 ZM16.64 535.43 L22.98 535.43 L22.98
								 534.83 L16.64 534.83 L16.64 535.43 ZM16.64 537.25 L22.98 537.25 L22.98 536.65 L16.64 536.65 L16.64
								 537.25 ZM6.34 530.36 a0.889394 0.889394 -180 1 0 -1.77879 0 a0.889394 0.889394 -180 1 0 1.77879
								 0 ZM-0 533.61 L6.34 533.61 L6.34 533.01 L-0 533.01 L-0 533.61 ZM-0 535.43 L6.34 535.43 L6.34 534.83
								 L-0 534.83 L-0 535.43 ZM-0 537.25 L6.34 537.25 L6.34 536.65 L-0 536.65 L-0 537.25 Z" class="st31"/>
				</g>
				<path d="M40.17 530.36 a0.889394 0.889394 -180 1 0 -1.77879 0 a0.889394 0.889394 -180 1 0 1.77879 0 ZM33.83 533.61
							 L40.17 533.61 L40.17 533.01 L33.83 533.01 L33.83 533.61 ZM33.83 535.43 L40.17 535.43 L40.17 534.83 L33.83
							 534.83 L33.83 535.43 ZM33.83 537.25 L40.17 537.25 L40.17 536.65 L33.83 536.65 L33.83 537.25 ZM22.98
							 530.36 a0.889394 0.889394 -180 1 0 -1.77879 0 a0.889394 0.889394 -180 1 0 1.77879 0 ZM16.64 533.61 L22.98
							 533.61 L22.98 533.01 L16.64 533.01 L16.64 533.61 ZM16.64 535.43 L22.98 535.43 L22.98 534.83 L16.64 534.83
							 L16.64 535.43 ZM16.64 537.25 L22.98 537.25 L22.98 536.65 L16.64 536.65 L16.64 537.25 ZM6.34 530.36 a0.889394
							 0.889394 -180 1 0 -1.77879 0 a0.889394 0.889394 -180 1 0 1.77879 0 ZM-0 533.61 L6.34 533.61 L6.34 533.01
							 L-0 533.01 L-0 533.61 ZM-0 535.43 L6.34 535.43 L6.34 534.83 L-0 534.83 L-0 535.43 ZM-0 537.25 L6.34
							 537.25 L6.34 536.65 L-0 536.65 L-0 537.25 Z" class="st32"/>
			</g>
		</g>
		<g id="shape173-520" transform="translate(191.075,-423.336)">
			<title>Dynamic connector.173</title>
			<path d="M9.68 530.17 L10.04 530.17 L69.49 530.17" class="st14"/>
		</g>
		<g id="shape174-527" transform="translate(332.664,-425.708)">
			<title>Sheet.174</title>
			<desc>Tesco Data Centres WDC, SDC and CDC</desc>
			<rect x="0" y="512.955" width="101.443" height="24.2977" class="st9"/>
			<text x="4" y="522.35" class="st10">Tesco Data Centres <tspan x="4" dy="1.2em" class="st11">WDC</tspan><tspan
						class="st11">, </tspan><tspan class="st11">SDC and CDC</tspan></text>		</g>
	</g>
</svg>
