<svg id="Capa_1" data-name="Capa 1" xmlns="http://www.w3.org/2000/svg" viewBox="0 0 19.03 22.28"><defs><style>.cls-1{fill:#fff;}.cls-2{fill:#0054a4;}</style></defs><title>LockedSpoke</title><path class="cls-1" d="M9.32,5.54V16.89c0,6,9.51,10.94,9.51,10.94s9.52-4.9,9.52-10.94V5.54ZM24,19.84a1.36,1.36,0,0,1-1.36,1.35H15a1.36,1.36,0,0,1-1.35-1.35V15.27A1.36,1.36,0,0,1,15,13.91h.19V12.16a3.61,3.61,0,1,1,7.21,0v1.75h.18A1.36,1.36,0,0,1,24,15.27Z" transform="translate(-9.32 -5.54)"/><rect class="cls-1" x="3.81" y="2.9" width="11.42" height="13.95"/><path class="cls-2" d="M18.83,10.35A1.81,1.81,0,0,0,17,12.16v1.75h3.6V12.16A1.81,1.81,0,0,0,18.83,10.35Z" transform="translate(-9.32 -5.54)"/><path class="cls-2" d="M9.32,5.54V16.89c0,6,9.51,10.94,9.51,10.94s9.52-4.9,9.52-10.94V5.54ZM24,19.84a1.36,1.36,0,0,1-1.36,1.35H15a1.36,1.36,0,0,1-1.35-1.35V15.27A1.36,1.36,0,0,1,15,13.91h.19V12.16a3.61,3.61,0,1,1,7.21,0v1.75h.18A1.36,1.36,0,0,1,24,15.27Z" transform="translate(-9.32 -5.54)"/></svg>