<svg id="Capa_1" data-name="Capa 1" xmlns="http://www.w3.org/2000/svg" viewBox="0 0 23.1 31.5"><defs><style>.cls-1{fill:#0054a4;}.cls-2,.cls-4{fill:#fff;}.cls-2{opacity:0.3;}.cls-2,.cls-3{isolation:isolate;}.cls-3{fill:#f02e25;}</style></defs><title>NSGKey</title><path class="cls-1" d="M31.05,8.73C24.1,8,22.9,4.94,22.9,4.94S21.33,8.86,11.35,8.86V25a8,8,0,0,0,2.59,5.36,32.55,32.55,0,0,0,9,6.06s11.56-5,11.56-11.42V8.86C33.19,8.86,32.06,8.79,31.05,8.73Z" transform="translate(-11.35 -4.94)"/><path class="cls-2" d="M14.17,20.5v3.81a6.4,6.4,0,0,0,2,4.26,23.85,23.85,0,0,0,7,4.75V20.5Z" transform="translate(-11.35 -4.94)"/><path class="cls-3" d="M23.19,33.32s9-4,9-9V20.5h-9Zm0-24.9s-1.24,3.13-9,3.13v9h9Z" transform="translate(-11.35 -4.94)"/><path class="cls-2" d="M29.48,11.42c-5.37-.62-6.29-2.94-6.29-2.94v12h9V11.55C31.21,11.55,30.29,11.49,29.48,11.42Z" transform="translate(-11.35 -4.94)"/><path class="cls-4" d="M23.52,19a4.25,4.25,0,1,0-1.81,1.81L24,23.12h1.21v1.21h1.2v1.21l.61.6h1.81V24.33Zm-4.93-1.74A1.39,1.39,0,1,1,20,15.89,1.39,1.39,0,0,1,18.59,17.28Z" transform="translate(-11.35 -4.94)"/></svg>