<svg id="Layer_1" data-name="Layer 1" xmlns="http://www.w3.org/2000/svg" viewBox="0 0 190.2 178.03"><defs><style>.cls-1,.cls-4{fill:#0054a4;}.cls-1,.cls-2{stroke:#0054a4;stroke-miterlimit:10;stroke-width:1.75px;}.cls-2{fill:none;}.cls-3{fill:#f02e25;}.cls-5{font-size:16px;}.cls-5,.cls-6,.cls-8{fill:#fff;}.cls-5,.cls-6{font-family:Tesco-Bold, Tesco;font-weight:700;}.cls-6{font-size:12px;}.cls-7{letter-spacing:-0.04em;}</style></defs><title>SpokeSecurity</title><line class="cls-1" x1="25.7" y1="122.7" x2="94.2" y2="57.2"/><line class="cls-2" x1="94.91" y1="57.2" x2="94.7" y2="122.7"/><line class="cls-2" x1="160.7" y1="122.7" x2="95.06" y2="57.26"/><circle class="cls-3" cx="94.6" cy="28.6" r="28.6"/><circle class="cls-4" cx="94.6" cy="28.6" r="24.89"/><text class="cls-5" transform="translate(79.43 32.36)">Hub</text><circle class="cls-3" cx="95.6" cy="119.6" r="28.6"/><circle class="cls-4" cx="95.6" cy="119.6" r="24.89"/><text class="cls-6" transform="translate(78.6 122.58)">Spo<tspan class="cls-7" x="20.88" y="0">k</tspan><tspan x="26.96" y="0">e</tspan></text><circle class="cls-3" cx="28.6" cy="119.6" r="28.6"/><circle class="cls-4" cx="28.6" cy="119.6" r="24.89"/><text class="cls-6" transform="translate(11.6 122.58)">Spo<tspan class="cls-7" x="20.88" y="0">k</tspan><tspan x="26.96" y="0">e</tspan></text><circle class="cls-3" cx="161.6" cy="119.6" r="28.6"/><circle class="cls-4" cx="161.6" cy="119.6" r="24.89"/><text class="cls-6" transform="translate(144.6 122.58)">Spo<tspan class="cls-7" x="20.88" y="0">k</tspan><tspan x="26.96" y="0">e</tspan></text><path class="cls-8" d="M174.32,176.54v11.35c0,6,9.51,10.94,9.51,10.94s9.52-4.9,9.52-10.94V176.54ZM189,190.84a1.36,1.36,0,0,1-1.36,1.35H180a1.36,1.36,0,0,1-1.35-1.35v-4.57a1.36,1.36,0,0,1,1.35-1.36h.19v-1.75a3.61,3.61,0,1,1,7.21,0v1.75h.18a1.36,1.36,0,0,1,1.36,1.36Z" transform="translate(-156.8 -20.8)"/><rect class="cls-8" x="21.33" y="158.64" width="11.42" height="13.95"/><path class="cls-4" d="M183.83,181.35a1.81,1.81,0,0,0-1.8,1.81v1.75h3.6v-1.75A1.81,1.81,0,0,0,183.83,181.35Z" transform="translate(-156.8 -20.8)"/><path class="cls-4" d="M174.32,176.54v11.35c0,6,9.51,10.94,9.51,10.94s9.52-4.9,9.52-10.94V176.54ZM189,190.84a1.36,1.36,0,0,1-1.36,1.35H180a1.36,1.36,0,0,1-1.35-1.35v-4.57a1.36,1.36,0,0,1,1.35-1.36h.19v-1.75a3.61,3.61,0,1,1,7.21,0v1.75h.18a1.36,1.36,0,0,1,1.36,1.36Z" transform="translate(-156.8 -20.8)"/><path class="cls-8" d="M242.89,176.54v11.35c0,6,9.51,10.94,9.51,10.94s9.51-4.9,9.51-10.94V176.54Zm14.65,14.3a1.35,1.35,0,0,1-1.35,1.35h-7.58a1.36,1.36,0,0,1-1.35-1.35v-4.57a1.36,1.36,0,0,1,1.35-1.36h.18v-1.75a3.61,3.61,0,0,1,7.22,0v1.75h.18a1.35,1.35,0,0,1,1.35,1.36Z" transform="translate(-156.8 -20.8)"/><rect class="cls-8" x="89.89" y="158.64" width="11.42" height="13.95"/><path class="cls-4" d="M252.4,181.35a1.81,1.81,0,0,0-1.8,1.81v1.75h3.6v-1.75A1.81,1.81,0,0,0,252.4,181.35Z" transform="translate(-156.8 -20.8)"/><path class="cls-4" d="M242.89,176.54v11.35c0,6,9.51,10.94,9.51,10.94s9.51-4.9,9.51-10.94V176.54Zm14.65,14.3a1.35,1.35,0,0,1-1.35,1.35h-7.58a1.36,1.36,0,0,1-1.35-1.35v-4.57a1.36,1.36,0,0,1,1.35-1.36h.18v-1.75a3.61,3.61,0,0,1,7.22,0v1.75h.18a1.35,1.35,0,0,1,1.35,1.36Z" transform="translate(-156.8 -20.8)"/><rect class="cls-4" x="91.09" y="162.75" width="2.71" height="1.37"/><path class="cls-8" d="M309.94,176.36V187.7c0,6,9.51,10.94,9.51,10.94s9.51-4.9,9.51-10.94V176.36Zm14.65,14.29a1.36,1.36,0,0,1-1.35,1.35h-7.58a1.36,1.36,0,0,1-1.35-1.35v-4.57a1.36,1.36,0,0,1,1.35-1.35h.18V183a3.61,3.61,0,0,1,7.22,0v1.76h.18a1.35,1.35,0,0,1,1.35,1.35Z" transform="translate(-156.8 -20.8)"/><rect class="cls-8" x="156.94" y="158.46" width="11.42" height="13.95"/><path class="cls-4" d="M319.45,181.16a1.81,1.81,0,0,0-1.8,1.81v1.76h3.6V183A1.81,1.81,0,0,0,319.45,181.16Z" transform="translate(-156.8 -20.8)"/><path class="cls-4" d="M309.94,176.36V187.7c0,6,9.51,10.94,9.51,10.94s9.51-4.9,9.51-10.94V176.36Zm14.65,14.29a1.36,1.36,0,0,1-1.35,1.35h-7.58a1.36,1.36,0,0,1-1.35-1.35v-4.57a1.36,1.36,0,0,1,1.35-1.35h.18V183a3.61,3.61,0,0,1,7.22,0v1.76h.18a1.35,1.35,0,0,1,1.35,1.35Z" transform="translate(-156.8 -20.8)"/><rect class="cls-4" x="158.14" y="162.56" width="2.71" height="1.37"/></svg>