<svg id="Capa_1" data-name="Capa 1" xmlns="http://www.w3.org/2000/svg" viewBox="0 0 23.1 31.5"><defs><style>.cls-1{fill:#0054a4;}.cls-2{fill:#fff;opacity:0.3;}.cls-2,.cls-3{isolation:isolate;}.cls-3{fill:#f02e25;}</style></defs><title>TescoNSG</title><path class="cls-1" d="M29.82,10.28c-6.94-.76-8.14-3.79-8.14-3.79s-1.58,3.92-11.55,3.92V26.57a8,8,0,0,0,2.59,5.36,32.39,32.39,0,0,0,9,6.06s11.55-5.05,11.55-11.42V10.41C32,10.41,30.83,10.34,29.82,10.28Z" transform="translate(-10.13 -6.49)"/><path class="cls-2" d="M12.94,22.05v3.81a6.45,6.45,0,0,0,2,4.26,24.12,24.12,0,0,0,7,4.76V22.05Z" transform="translate(-10.13 -6.49)"/><path class="cls-3" d="M22,34.88s9-4,9-9V22.05H22ZM22,10s-1.23,3.13-9,3.13v9h9Z" transform="translate(-10.13 -6.49)"/><path class="cls-2" d="M28.26,13C22.89,12.35,22,10,22,10v12h9v-9C30,13.1,29.06,13,28.26,13Z" transform="translate(-10.13 -6.49)"/></svg>