<svg id="Capa_1" data-name="Capa 1" xmlns="http://www.w3.org/2000/svg" viewBox="0 0 19.03 22.28"><defs><style>.cls-1{fill:#fff;}.cls-2{fill:#0054a4;}</style></defs><title>UnlockedSpoke</title><path class="cls-1" d="M8.89,5.54V16.89c0,6,9.51,10.94,9.51,10.94s9.51-4.9,9.51-10.94V5.54Zm14.65,14.3a1.35,1.35,0,0,1-1.35,1.35H14.61a1.36,1.36,0,0,1-1.35-1.35V15.27a1.36,1.36,0,0,1,1.35-1.36h.18V12.16a3.61,3.61,0,0,1,7.22,0v1.75h.18a1.35,1.35,0,0,1,1.35,1.36Z" transform="translate(-8.89 -5.54)"/><rect class="cls-1" x="3.81" y="2.9" width="11.42" height="13.95"/><path class="cls-2" d="M18.4,10.35a1.81,1.81,0,0,0-1.8,1.81v1.75h3.6V12.16A1.81,1.81,0,0,0,18.4,10.35Z" transform="translate(-8.89 -5.54)"/><path class="cls-2" d="M8.89,5.54V16.89c0,6,9.51,10.94,9.51,10.94s9.51-4.9,9.51-10.94V5.54Zm14.65,14.3a1.35,1.35,0,0,1-1.35,1.35H14.61a1.36,1.36,0,0,1-1.35-1.35V15.27a1.36,1.36,0,0,1,1.35-1.36h.18V12.16a3.61,3.61,0,0,1,7.22,0v1.75h.18a1.35,1.35,0,0,1,1.35,1.36Z" transform="translate(-8.89 -5.54)"/><rect class="cls-2" x="5" y="7" width="2.71" height="1.37"/></svg>